# 3ds Max Wavefront OBJ Exporter v0.99 - (c)2007 guruware
# File Created: 17.11.2024 20:14:20

#
# object Firewood
#

v  -0.0000 4.6211 18.7440
v  4.9378 6.6664 18.7440
v  6.9832 11.6043 18.7440
v  -6.9832 11.6043 18.7440
v  -4.9379 6.6664 18.7440
v  -4.9379 16.5422 18.7440
v  -4.4021 16.0064 0.0000
v  -6.2255 11.6043 0.0000
v  -0.0000 18.5875 18.7440
v  0.0000 17.8298 0.0000
v  4.9378 16.5422 18.7440
v  4.4021 16.0064 0.0000
v  6.2255 11.6043 0.0000
v  4.4021 7.2022 0.0000
v  0.0000 5.3788 0.0000
v  -4.4021 7.2022 0.0000
v  -0.0000 4.6211 -18.3378
v  -4.9379 6.6664 -18.3377
v  -6.9832 11.6043 -18.3377
v  6.9832 11.6043 -18.3377
v  4.9379 6.6664 -18.3378
v  -4.9379 16.5422 -18.3377
v  -0.0000 18.5875 -18.3378
v  4.9379 16.5422 -18.3378
v  7.0000 -6.9832 18.7440
v  11.9378 -4.9379 18.7440
v  13.9832 -0.0000 18.7440
v  0.0168 -0.0000 18.7440
v  2.0621 -4.9379 18.7440
v  2.0621 4.9379 18.7440
v  2.5979 4.4021 0.0000
v  0.7745 -0.0000 0.0000
v  7.0000 6.9832 18.7440
v  7.0000 6.2255 -0.0000
v  11.9378 4.9379 18.7440
v  11.4021 4.4021 0.0000
v  13.2255 0.0000 0.0000
v  11.4021 -4.4021 0.0000
v  7.0000 -6.2255 -0.0000
v  2.5979 -4.4021 0.0000
v  7.0000 -6.9832 -18.3378
v  2.0621 -4.9379 -18.3378
v  0.0168 0.0000 -18.3377
v  13.9832 0.0000 -18.3377
v  11.9379 -4.9379 -18.3378
v  2.0621 4.9379 -18.3377
v  7.0000 6.9832 -18.3378
v  11.9379 4.9379 -18.3378
v  -7.0000 -6.9832 18.7440
v  -2.0622 -4.9379 18.7440
v  -0.0168 -0.0000 18.7440
v  -13.9832 -0.0000 18.7440
v  -11.9379 -4.9379 18.7440
v  -11.9379 4.9379 18.7440
v  -11.4021 4.4021 0.0000
v  -13.2255 -0.0000 0.0000
v  -7.0000 6.9832 18.7440
v  -7.0000 6.2255 -0.0000
v  -2.0622 4.9379 18.7440
v  -2.5979 4.4021 0.0000
v  -0.7745 0.0000 0.0000
v  -2.5979 -4.4021 0.0000
v  -7.0000 -6.2255 -0.0000
v  -11.4021 -4.4021 0.0000
v  -7.0000 -6.9832 -18.3378
v  -11.9379 -4.9379 -18.3378
v  -13.9832 0.0000 -18.3377
v  -0.0168 0.0000 -18.3377
v  -2.0621 -4.9379 -18.3378
v  -11.9379 4.9379 -18.3377
v  -7.0000 6.9832 -18.3378
v  -2.0621 4.9379 -18.3378
# 72 vertices

vn 0.2588 -0.0000 0.9659
vn 0.2588 0.0000 0.9659
vn -0.9007 0.3825 0.2062
vn -0.3782 0.9233 0.0662
vn 0.3606 0.9233 -0.1318
vn 0.8831 0.3825 -0.2718
vn 0.8831 -0.3825 -0.2718
vn 0.3606 -0.9233 -0.1318
vn -0.3782 -0.9233 0.0662
vn -0.9007 -0.3825 0.2062
vn -0.2588 0.0000 -0.9659
vn -0.2588 -0.0000 -0.9659
vn -0.8831 0.3825 0.2718
vn -0.3606 0.9233 0.1318
vn 0.3782 0.9233 -0.0662
vn 0.9007 0.3825 -0.2062
vn 0.9007 -0.3825 -0.2062
vn 0.3782 -0.9233 -0.0662
vn -0.3606 -0.9233 0.1318
vn -0.8831 -0.3825 0.2718
# 20 vertex normals

vt 0.4408 0.4477 0.0000
vt 0.4417 0.4468 0.0000
vt 0.4430 0.4468 0.0000
vt 0.4417 0.4499 0.0000
vt 0.4408 0.4490 0.0000
vt 0.6906 0.4308 0.0000
vt 0.6885 0.4306 0.0000
vt 0.6885 0.4314 0.0000
vt 0.6906 0.4316 0.0000
vt 0.6908 0.4327 0.0000
vt 0.6887 0.4325 0.0000
vt 0.6887 0.4332 0.0000
vt 0.6908 0.4336 0.0000
vt 0.6908 0.4319 0.0000
vt 0.6887 0.4317 0.0000
vt 0.6892 0.4331 0.0000
vt 0.6892 0.4330 0.0000
vt 0.6892 0.4337 0.0000
vt 0.6892 0.4339 0.0000
vt 0.6892 0.4322 0.0000
vt 0.6892 0.4323 0.0000
vt 0.6928 0.4321 0.0000
vt 0.6896 0.4321 0.0000
vt 0.6896 0.4313 0.0000
vt 0.6928 0.4313 0.0000
vt 0.6928 0.4329 0.0000
vt 0.6896 0.4328 0.0000
vt 0.6885 0.4321 0.0000
vt 0.6906 0.4325 0.0000
vt 0.4407 0.4478 0.0000
vt 0.4416 0.4469 0.0000
vt 0.4429 0.4469 0.0000
vt 0.4417 0.4500 0.0000
vt 0.4407 0.4491 0.0000
vt 0.4438 0.4478 0.0000
vt 0.4439 0.4490 0.0000
vt 0.4430 0.4500 0.0000
vt 0.4430 0.4499 0.0000
vt 0.4439 0.4477 0.0000
vt 0.6916 0.4305 0.0000
vt 0.6916 0.4314 0.0000
vt 0.6918 0.4325 0.0000
vt 0.6918 0.4333 0.0000
vt 0.6918 0.4317 0.0000
vt 0.6923 0.4330 0.0000
vt 0.6923 0.4338 0.0000
vt 0.6923 0.4322 0.0000
vt 0.6886 0.4323 0.0000
vt 0.6886 0.4314 0.0000
vt 0.6886 0.4331 0.0000
vt 0.6916 0.4322 0.0000
vt 0.4438 0.4490 0.0000
vt 0.4429 0.4499 0.0000
vt 0.4429 0.4468 0.0000
vt 0.4438 0.4477 0.0000
vt 0.6908 0.4292 0.0000
vt 0.6908 0.4303 0.0000
vt 0.6900 0.4303 0.0000
vt 0.6900 0.4292 0.0000
vt 0.6905 0.4334 0.0000
vt 0.6905 0.4302 0.0000
vt 0.6912 0.4302 0.0000
vt 0.6913 0.4334 0.0000
vt 0.6918 0.4336 0.0000
vt 0.6919 0.4304 0.0000
vt 0.6907 0.4313 0.0000
vt 0.6885 0.4311 0.0000
vt 0.6885 0.4318 0.0000
vt 0.6907 0.4322 0.0000
vt 0.6906 0.4326 0.0000
vt 0.6885 0.4324 0.0000
vt 0.6928 0.4303 0.0000
vt 0.6896 0.4303 0.0000
vt 0.6896 0.4296 0.0000
vt 0.6928 0.4295 0.0000
vt 0.6928 0.4312 0.0000
vt 0.6896 0.4311 0.0000
vt 0.6893 0.4303 0.0000
vt 0.6891 0.4292 0.0000
vt 0.4408 0.4491 0.0000
vt 0.4408 0.4478 0.0000
vt 0.4407 0.4477 0.0000
vt 0.4416 0.4468 0.0000
vt 0.4407 0.4490 0.0000
vt 0.6909 0.4334 0.0000
vt 0.6900 0.4334 0.0000
vt 0.6926 0.4294 0.0000
vt 0.6934 0.4294 0.0000
vt 0.6917 0.4294 0.0000
vt 0.6916 0.4311 0.0000
vt 0.6916 0.4319 0.0000
vt 0.6916 0.4324 0.0000
vt 0.6886 0.4305 0.0000
vt 0.6886 0.4297 0.0000
vt 0.6892 0.4334 0.0000
vt 0.6926 0.4293 0.0000
vt 0.6926 0.4304 0.0000
vt 0.6918 0.4304 0.0000
vt 0.6918 0.4293 0.0000
vt 0.6894 0.4324 0.0000
vt 0.6894 0.4323 0.0000
vt 0.6894 0.4331 0.0000
vt 0.6894 0.4332 0.0000
vt 0.6894 0.4315 0.0000
vt 0.6894 0.4316 0.0000
vt 0.6892 0.4312 0.0000
vt 0.6892 0.4319 0.0000
vt 0.6892 0.4321 0.0000
vt 0.6892 0.4304 0.0000
vt 0.6928 0.4317 0.0000
vt 0.6896 0.4317 0.0000
vt 0.6896 0.4310 0.0000
vt 0.6928 0.4309 0.0000
vt 0.6928 0.4326 0.0000
vt 0.6896 0.4325 0.0000
vt 0.6911 0.4304 0.0000
vt 0.6909 0.4293 0.0000
vt 0.4439 0.4478 0.0000
vt 0.4417 0.4469 0.0000
vt 0.6927 0.4335 0.0000
vt 0.6918 0.4335 0.0000
vt 0.6925 0.4323 0.0000
vt 0.6925 0.4331 0.0000
vt 0.6925 0.4315 0.0000
vt 0.6923 0.4312 0.0000
vt 0.6923 0.4320 0.0000
vt 0.6923 0.4303 0.0000
vt 0.6887 0.4319 0.0000
vt 0.6887 0.4311 0.0000
vt 0.6887 0.4328 0.0000
vt 0.6910 0.4335 0.0000
# 131 texture coords

o Firewood
g Firewood
s off
f 1/1/1 2/2/1 3/3/2 4/4/1 5/5/1 
f 6/6/3 7/7/3 8/8/3 4/9/3 
f 9/10/4 10/11/4 7/12/4 6/13/4 
f 11/14/5 12/15/5 10/11/5 9/10/5 
f 3/16/6 13/17/6 12/18/6 11/19/6 
f 2/20/7 14/21/7 13/17/7 3/16/7 
f 1/22/8 15/23/8 14/24/8 2/25/8 
f 5/26/9 16/27/9 15/23/9 1/22/9 
f 4/9/10 8/8/10 16/28/10 5/29/10 
f 17/30/11 18/31/11 19/32/11 20/33/11 21/34/11 
f 20/33/11 19/32/11 22/35/12 23/36/12 24/37/12 
f 9/36/2 6/38/2 4/4/1 3/3/2 11/39/2 
f 22/40/13 19/41/13 8/8/13 7/7/13 
f 23/42/14 22/43/14 7/12/14 10/11/14 
f 24/44/15 23/42/15 10/11/15 12/15/15 
f 20/45/16 24/46/16 12/18/16 13/17/16 
f 21/47/17 20/45/17 13/17/17 14/21/17 
f 17/48/18 21/49/18 14/24/18 15/23/18 
f 18/50/19 17/48/19 15/23/19 16/27/19 
f 19/41/20 18/51/20 16/28/20 8/8/20 
f 25/52/1 26/53/1 27/4/2 28/54/1 29/55/1 
f 30/56/3 31/57/3 32/58/3 28/59/3 
f 33/60/4 34/61/4 31/62/4 30/63/4 
f 35/64/5 36/65/5 34/61/5 33/60/5 
f 27/66/6 37/67/6 36/68/6 35/69/6 
f 26/70/7 38/71/7 37/67/7 27/66/7 
f 25/72/8 39/73/8 38/74/8 26/75/8 
f 29/76/9 40/77/9 39/73/9 25/72/9 
f 28/59/10 32/58/10 40/78/10 29/79/10 
f 41/36/11 42/37/11 43/33/11 44/3/11 45/39/11 
f 44/3/11 43/33/11 46/80/12 47/81/12 48/2/12 
f 33/82/2 30/83/2 28/54/1 27/4/2 35/84/2 
f 46/85/13 43/86/13 32/58/13 31/57/13 
f 47/87/14 46/88/14 31/62/14 34/61/14 
f 48/89/15 47/87/15 34/61/15 36/65/15 
f 44/90/16 48/91/16 36/68/16 37/67/16 
f 45/92/17 44/90/17 37/67/17 38/71/17 
f 41/93/18 45/94/18 38/74/18 39/73/18 
f 42/49/19 41/93/19 39/73/19 40/77/19 
f 43/86/20 42/95/20 40/78/20 32/58/20 
f 49/33/1 50/80/1 51/81/2 52/36/1 53/37/1 
f 54/96/3 55/97/3 56/98/3 52/99/3 
f 57/100/4 58/101/4 55/102/4 54/103/4 
f 59/104/5 60/105/5 58/101/5 57/100/5 
f 51/106/6 61/106/6 60/107/6 59/108/6 
f 50/109/7 62/109/7 61/106/7 51/106/7 
f 49/110/8 63/111/8 62/112/8 50/113/8 
f 53/114/9 64/115/9 63/111/9 49/110/9 
f 52/99/10 56/98/10 64/116/10 53/117/10 
f 65/36/11 66/38/11 67/4/11 68/3/11 69/39/11 
f 68/3/11 67/4/11 70/5/12 71/1/12 72/2/12 
f 57/3/2 54/118/2 52/36/1 51/81/2 59/119/2 
f 70/120/13 67/121/13 56/98/13 55/97/13 
f 71/122/14 70/123/14 55/102/14 58/101/14 
f 72/124/15 71/122/15 58/101/15 60/105/15 
f 68/125/16 72/126/16 60/107/16 61/106/16 
f 69/127/17 68/125/17 61/106/17 62/109/17 
f 65/128/18 69/129/18 62/112/18 63/111/18 
f 66/130/19 65/128/19 63/111/19 64/115/19 
f 67/121/20 66/131/20 64/116/20 56/98/20 
# 60 polygons

