# 3ds Max Wavefront OBJ Exporter v0.99 - (c)2007 guruware
# File Created: 11.03.2024 13:18:31

#
# object fov
#

v  -5.0000 0.0000 50.0000
v  -87.9792 -47.3428 -50.0000
v  87.9792 -47.3428 -50.0000
v  5.0000 0.0000 50.0000
v  -5.0000 10.0000 50.0000
v  5.0000 10.0000 50.0000
v  87.9792 57.3428 -50.0000
v  -87.9792 57.3428 -50.0000
# 8 vertices

vn -0.3287 -0.4452 0.8329
vn -0.7123 -0.6352 -0.2986
vn 0.7123 -0.6352 -0.2986
vn 0.3287 -0.4452 0.8329
vn -0.3287 0.4452 0.8329
vn 0.3287 0.4452 0.8329
vn 0.7123 0.6352 -0.2986
vn -0.7123 0.6352 -0.2986
# 8 vertex normals

vt 1.0000 0.0000 0.0000
vt 1.0000 1.0000 0.0000
vt 0.0000 1.0000 0.0000
vt 0.0000 0.0000 0.0000
# 4 texture coords

o fov
g fov
f 1/1/1 2/2/2 3/3/3 4/4/4 
f 5/4/5 6/1/6 7/2/7 8/3/8 
f 1/4/1 4/1/4 6/2/6 5/3/5 
f 4/4/4 3/1/3 7/2/7 6/3/6 
f 3/4/3 2/1/2 8/2/8 7/3/7 
f 2/4/2 1/1/1 5/2/5 8/3/8 
# 6 polygons

