# 3ds Max Wavefront OBJ Exporter v0.99 - (c)2007 guruware
# File Created: 16.11.2024 22:30:25

#
# object Lowpoly_Pine_02
#

v  0.2761 412.4088 29.2577
v  13.2039 356.3488 -2.8005
v  0.2465 352.4734 -10.9260
v  19.9686 347.3456 8.0959
v  13.2039 349.4164 22.1479
v  0.2465 342.1883 27.1080
v  -12.7109 349.4164 22.1479
v  -19.4756 347.3456 8.0959
v  -12.7109 356.3488 -2.8005
v  54.5612 94.6168 -52.3523
v  83.0005 88.4438 2.1201
v  23.3904 134.3765 2.5146
v  15.3931 135.9444 -12.7701
v  -12.7799 211.3026 -16.1918
v  -73.5832 154.2761 -25.6387
v  -29.7705 160.2519 -64.4124
v  0.1183 211.5984 -21.4478
v  -38.7441 228.8059 -41.8996
v  0.1183 224.3586 -61.4343
v  -4.2205 274.7289 -14.5352
v  -9.8906 273.8216 -8.6580
v  -8.5101 318.4626 -7.7508
v  -19.7122 285.0139 -40.1345
v  11.4191 290.9108 -40.0950
v  0.2169 319.2614 -11.2712
v  1.7553 371.4559 10.2358
v  -2.1990 371.3376 10.6203
v  -18.1147 210.5827 -3.4810
v  -66.8481 159.9659 31.9005
v  -9.6737 272.5693 -0.5719
v  -59.0480 221.0650 -3.0766
v  -37.1860 286.7593 -14.4760
v  -12.1192 316.5496 0.7297
v  -4.7234 370.4500 13.5787
v  -12.7701 209.8333 9.2299
v  -28.1336 154.0592 75.8709
v  -38.7441 223.4908 34.7109
v  -3.6782 271.7015 4.9897
v  -8.5101 314.6266 9.2102
v  -36.8113 276.4250 15.6396
v  -4.3191 369.3062 17.3653
v  0.1183 209.5177 14.4859
v  29.9480 159.7391 68.7710
v  4.5755 271.7410 4.7727
v  0.1282 217.2290 55.2317
v  -11.0542 278.7817 33.1134
v  0.2169 313.8181 12.7208
v  -1.2326 368.5863 19.7813
v  13.0166 209.8333 9.2299
v  73.7508 154.1972 30.6186
v  39.0005 223.4908 34.7109
v  10.2555 272.6580 -1.0946
v  8.9440 314.6266 9.2102
v  20.0672 273.7427 32.3935
v  2.7216 368.6948 19.3967
v  67.0256 160.1829 -27.4926
v  18.3613 210.5827 -3.4810
v  59.2846 221.0650 -3.0766
v  10.0287 273.9104 -9.1806
v  37.5509 283.1107 7.5338
v  12.5630 316.5496 0.7297
v  5.2461 369.5823 16.4384
v  13.0166 211.3026 -16.1918
v  28.3111 154.2860 -70.9700
v  39.0005 228.8059 -41.8996
v  4.0332 274.7584 -14.7521
v  8.9440 318.4626 -7.7508
v  37.1663 282.4796 -23.3608
v  4.8418 370.7262 12.6517
v  0.0887 88.4438 -80.8014
v  54.5612 94.6168 56.5926
v  0.0887 88.4438 85.0417
v  -54.3935 94.6168 56.5926
v  -82.8328 88.4438 2.1201
v  -54.3935 94.6168 -52.3523
v  -15.2255 135.9444 17.8091
v  -23.2228 134.3765 2.5146
v  -15.2255 135.9444 -12.7701
v  0.0887 134.3765 -20.7674
v  15.3931 135.9444 17.8091
v  0.0887 134.3765 25.7965
v  0.0887 126.7046 -7.4155
v  7.0211 126.7046 -4.5459
v  9.5751 51.6029 -7.3761
v  0.0887 51.6029 -11.3106
v  9.8906 126.7046 2.3864
v  13.5096 51.6029 2.1201
v  7.0211 126.7046 9.3187
v  9.5751 51.6029 11.6163
v  0.0887 126.7046 12.1883
v  0.0887 51.6029 15.5509
v  -6.8436 126.7046 9.3187
v  -9.4074 51.6029 11.6163
v  -9.7131 126.7046 2.3864
v  -13.3420 51.6029 2.1201
v  -6.8436 126.7046 -4.5459
v  -9.4074 51.6029 -7.3761
v  -14.4859 -0.8678 16.6948
v  -20.5208 -0.8678 2.1201
v  -14.4859 -0.8678 -12.4545
v  0.0887 -0.8678 -18.4895
v  14.6535 -0.8678 -12.4545
v  20.6885 -0.8678 2.1201
v  14.6535 -0.8678 16.6948
v  0.0887 -0.8678 22.7297
# 105 vertices

vn 0.3339 0.5247 -0.7830
vn 0.8969 0.3565 -0.2617
vn 0.9003 0.1382 0.4128
vn 0.3713 -0.0285 0.9281
vn -0.3714 -0.0282 0.9281
vn -0.9000 0.1389 0.4132
vn -0.8966 0.3572 -0.2617
vn -0.3340 0.5249 -0.7829
vn -0.5928 -0.7736 0.2238
vn 0.4963 -0.6777 0.5426
vn 0.3344 -0.6552 0.6774
vn 0.1770 -0.6926 0.6993
vn 0.1692 -0.7319 0.6600
vn 0.7048 -0.7085 0.0362
vn 0.7287 -0.6592 0.1855
vn 0.6395 -0.6615 0.3917
vn 0.8002 -0.5883 0.1162
vn 0.4867 -0.7394 -0.4653
vn 0.6551 -0.6566 -0.3738
vn 0.7751 -0.5746 -0.2627
vn 0.8383 -0.4460 -0.3136
vn 0.0396 -0.7504 -0.6598
vn 0.2259 -0.6519 -0.7239
vn 0.4626 -0.5144 -0.7221
vn 0.2819 -0.2820 -0.9171
vn -0.4490 -0.7425 -0.4971
vn -0.3070 -0.6502 -0.6950
vn -0.1435 -0.4924 -0.8584
vn -0.1874 -0.2583 -0.9477
vn -0.6956 -0.7164 -0.0545
vn -0.6993 -0.6537 -0.2893
vn -0.6212 -0.5336 -0.5739
vn -0.8037 -0.4327 -0.4085
vn -0.5434 -0.6823 0.4891
vn -0.6982 -0.6562 0.2863
vn -0.7885 -0.6121 0.0601
vn -0.8367 -0.5469 0.0300
vn -0.0452 -0.6657 0.7449
vn -0.2342 -0.6508 0.7222
vn -0.4984 -0.6783 0.5400
vn -0.2638 -0.7371 0.6222
vn 0.3824 0.3982 -0.8338
vn 0.8287 0.4164 -0.3740
vn 0.8131 0.4470 0.3728
vn 0.3594 0.4665 0.8082
vn -0.3594 0.4666 0.8081
vn -0.8130 0.4474 0.3727
vn -0.8286 0.4168 -0.3739
vn -0.3824 0.3984 -0.8337
vn -0.0561 0.4112 -0.9098
vn 0.6464 0.4258 -0.6332
vn 0.8878 0.4583 -0.0431
vn 0.6035 0.4930 0.6267
vn 0.0514 0.5059 0.8611
vn -0.6106 0.4942 0.6188
vn -0.8836 0.4642 0.0622
vn -0.6378 0.4264 -0.6413
vn 0.3652 0.4352 -0.8229
vn 0.8420 0.4189 -0.3400
vn 0.8210 0.3867 0.4201
vn 0.3750 0.3681 0.8508
vn -0.3748 0.3687 0.8506
vn -0.8204 0.3880 0.4200
vn -0.8415 0.4203 -0.3395
vn -0.3651 0.4358 -0.8227
vn 0.5858 0.4798 -0.6532
vn 0.9364 0.3506 -0.0161
vn 0.7517 0.2198 0.6218
vn 0.0511 0.1429 0.9884
vn -0.5650 0.1819 0.8048
vn -0.9374 0.3228 0.1307
vn -0.7241 0.4537 -0.5195
vn -0.0970 0.5190 -0.8492
vn 0.0000 -1.0000 -0.0001
vn 0.2255 -0.7707 -0.5959
vn 0.2228 -0.7751 0.5913
vn -0.2228 -0.7751 0.5913
vn -0.5946 -0.7720 -0.2249
vn 0.5946 -0.7720 -0.2249
vn -0.2255 -0.7707 -0.5959
vn 0.5928 -0.7736 0.2238
vn 0.3822 0.0478 -0.9228
vn 0.9229 0.0459 -0.3823
vn 0.9230 0.0432 0.3823
vn 0.3824 0.0413 0.9231
vn -0.3824 0.0413 0.9231
vn -0.9230 0.0432 0.3823
vn 0.0000 1.0000 -0.0000
vn -0.9229 0.0459 -0.3823
vn -0.3822 0.0478 -0.9228
vn -0.0000 -1.0000 -0.0000
vn -0.3797 0.1254 -0.9166
vn -0.9166 0.1254 -0.3797
vn -0.9166 0.1254 0.3797
vn -0.3797 0.1254 0.9166
vn 0.3797 0.1254 0.9166
vn 0.9166 0.1254 0.3797
vn 0.9166 0.1254 -0.3797
vn 0.3797 0.1254 -0.9166
# 99 vertex normals

vt 0.8168 0.7909 0.0000
vt 0.8168 0.7902 0.0000
vt 0.8176 0.7902 0.0000
vt 0.8160 0.7909 0.0000
vt 0.8160 0.7902 0.0000
vt 0.8153 0.7909 0.0000
vt 0.8153 0.7902 0.0000
vt 0.8145 0.7909 0.0000
vt 0.8145 0.7902 0.0000
vt 0.8137 0.7909 0.0000
vt 0.8137 0.7902 0.0000
vt 0.8129 0.7909 0.0000
vt 0.8129 0.7902 0.0000
vt 0.8122 0.7909 0.0000
vt 0.8122 0.7902 0.0000
vt 0.8114 0.7909 0.0000
vt 0.8114 0.7902 0.0000
vt 0.8168 0.7877 0.0000
vt 0.8160 0.7877 0.0000
vt 0.8122 0.7884 0.0000
vt 0.8114 0.7884 0.0000
vt 0.8122 0.7890 0.0000
vt 0.8114 0.7890 0.0000
vt 0.8122 0.7896 0.0000
vt 0.8114 0.7896 0.0000
vt 0.8129 0.7884 0.0000
vt 0.8129 0.7890 0.0000
vt 0.8129 0.7896 0.0000
vt 0.8137 0.7884 0.0000
vt 0.8137 0.7890 0.0000
vt 0.8137 0.7896 0.0000
vt 0.8145 0.7884 0.0000
vt 0.8145 0.7890 0.0000
vt 0.8145 0.7896 0.0000
vt 0.8153 0.7884 0.0000
vt 0.8153 0.7890 0.0000
vt 0.8153 0.7896 0.0000
vt 0.8160 0.7884 0.0000
vt 0.8160 0.7890 0.0000
vt 0.8160 0.7896 0.0000
vt 0.8168 0.7884 0.0000
vt 0.8168 0.7890 0.0000
vt 0.8168 0.7896 0.0000
vt 0.8176 0.7884 0.0000
vt 0.8176 0.7890 0.0000
vt 0.8176 0.7896 0.0000
vt 0.8176 0.7877 0.0000
vt 0.8153 0.7877 0.0000
vt 0.8145 0.7877 0.0000
vt 0.8137 0.7877 0.0000
vt 0.8129 0.7877 0.0000
vt 0.8122 0.7877 0.0000
vt 0.8114 0.7877 0.0000
vt 0.8136 0.7881 0.0000
vt 0.8132 0.7891 0.0000
vt 0.8136 0.7902 0.0000
vt 0.8146 0.7906 0.0000
vt 0.8157 0.7902 0.0000
vt 0.8161 0.7891 0.0000
vt 0.8157 0.7881 0.0000
vt 0.8146 0.7876 0.0000
vt 0.8699 0.4969 0.0000
vt 0.8553 0.4969 0.0000
vt 0.8553 0.4613 0.0000
vt 0.8699 0.4613 0.0000
vt 0.8408 0.4969 0.0000
vt 0.8408 0.4613 0.0000
vt 0.8262 0.4969 0.0000
vt 0.8262 0.4613 0.0000
vt 0.8117 0.4969 0.0000
vt 0.8117 0.4613 0.0000
vt 0.7971 0.4969 0.0000
vt 0.7971 0.4613 0.0000
vt 0.7826 0.4969 0.0000
vt 0.7826 0.4613 0.0000
vt 0.7860 0.4395 0.0000
vt 0.8058 0.4477 0.0000
vt 0.8140 0.4674 0.0000
vt 0.8058 0.4872 0.0000
vt 0.7860 0.4954 0.0000
vt 0.7663 0.4872 0.0000
vt 0.7581 0.4674 0.0000
vt 0.7663 0.4477 0.0000
vt 0.7680 0.4969 0.0000
vt 0.7680 0.4613 0.0000
vt 0.7535 0.4969 0.0000
vt 0.7535 0.4613 0.0000
vt 0.8245 0.4477 0.0000
vt 0.8163 0.4674 0.0000
vt 0.8245 0.4872 0.0000
vt 0.8442 0.4954 0.0000
vt 0.8640 0.4872 0.0000
vt 0.8722 0.4674 0.0000
vt 0.8640 0.4477 0.0000
vt 0.8442 0.4395 0.0000
vt 0.7535 0.4386 0.0000
vt 0.7680 0.4386 0.0000
vt 0.7826 0.4386 0.0000
vt 0.7971 0.4386 0.0000
vt 0.8117 0.4386 0.0000
vt 0.8262 0.4386 0.0000
vt 0.8408 0.4386 0.0000
vt 0.8553 0.4386 0.0000
vt 0.8699 0.4386 0.0000
# 104 texture coords

o Lowpoly_Pine_02
g Lowpoly_Pine_02
s 1
f 1/1/1 2/2/1 3/3/1 
f 1/4/2 4/5/2 2/2/2 
f 1/6/3 5/7/3 4/5/3 
f 1/8/4 6/9/4 5/7/4 
f 1/10/5 7/11/5 6/9/5 
f 1/12/6 8/13/6 7/11/6 
f 1/14/7 9/15/7 8/13/7 
f 1/16/8 3/17/8 9/15/8 
f 10/18/9 11/19/9 12/19/9 13/18/9 
f 14/20/10 15/20/10 16/21/10 17/21/10 
f 18/22/11 19/23/11 20/23/11 21/22/11 
f 22/24/12 23/24/12 24/25/12 25/25/12 
f 9/15/13 3/17/13 26/17/13 27/15/13 
f 28/26/14 29/26/14 15/20/14 14/20/14 
f 30/27/15 31/27/15 18/22/15 21/22/15 
f 32/28/16 23/24/16 22/24/16 33/28/16 
f 34/13/17 8/13/17 9/15/17 27/15/17 
f 35/29/18 36/29/18 29/26/18 28/26/18 
f 37/30/19 31/27/19 30/27/19 38/30/19 
f 39/31/20 40/31/20 32/28/20 33/28/20 
f 7/11/21 8/13/21 34/13/21 41/11/21 
f 42/32/22 43/32/22 36/29/22 35/29/22 
f 44/33/23 45/33/23 37/30/23 38/30/23 
f 46/34/24 40/31/24 39/31/24 47/34/24 
f 48/9/25 6/9/25 7/11/25 41/11/25 
f 49/35/26 50/35/26 43/32/26 42/32/26 
f 51/36/27 45/33/27 44/33/27 52/36/27 
f 53/37/28 54/37/28 46/34/28 47/34/28 
f 5/7/29 6/9/29 48/9/29 55/7/29 
f 56/38/30 50/35/30 49/35/30 57/38/30 
f 58/39/31 51/36/31 52/36/31 59/39/31 
f 60/40/32 54/37/32 53/37/32 61/40/32 
f 62/5/33 4/5/33 5/7/33 55/7/33 
f 63/41/34 64/41/34 56/38/34 57/38/34 
f 65/42/35 58/39/35 59/39/35 66/42/35 
f 67/43/36 68/43/36 60/40/36 61/40/36 
f 2/2/37 4/5/37 62/5/37 69/2/37 
f 17/44/38 16/44/38 64/41/38 63/41/38 
f 19/45/39 65/42/39 66/42/39 20/45/39 
f 24/46/40 68/43/40 67/43/40 25/46/40 
f 26/3/41 3/3/41 2/2/41 69/2/41 
f 17/44/42 63/41/42 10/18/42 70/47/42 
f 10/18/43 63/41/43 57/38/43 11/19/43 
f 57/38/44 49/35/44 71/48/44 11/19/44 
f 71/48/45 49/35/45 42/32/45 72/49/45 
f 42/32/46 35/29/46 73/50/46 72/49/46 
f 73/50/47 35/29/47 28/26/47 74/51/47 
f 28/26/48 14/20/48 75/52/48 74/51/48 
f 75/52/49 14/20/49 17/21/49 70/53/49 
f 16/44/50 20/45/50 66/42/50 64/41/50 
f 66/42/51 59/39/51 56/38/51 64/41/51 
f 56/38/52 59/39/52 52/36/52 50/35/52 
f 52/36/53 44/33/53 43/32/53 50/35/53 
f 43/32/54 44/33/54 38/30/54 36/29/54 
f 38/30/55 30/27/55 29/26/55 36/29/55 
f 29/26/56 30/27/56 21/22/56 15/20/56 
f 21/22/57 20/23/57 16/21/57 15/20/57 
f 25/46/58 67/43/58 65/42/58 19/45/58 
f 65/42/59 67/43/59 61/40/59 58/39/59 
f 61/40/60 53/37/60 51/36/60 58/39/60 
f 51/36/61 53/37/61 47/34/61 45/33/61 
f 47/34/62 39/31/62 37/30/62 45/33/62 
f 37/30/63 39/31/63 33/28/63 31/27/63 
f 33/28/64 22/24/64 18/22/64 31/27/64 
f 18/22/65 22/24/65 25/25/65 19/23/65 
f 24/46/66 26/3/66 69/2/66 68/43/66 
f 69/2/67 62/5/67 60/40/67 68/43/67 
f 60/40/68 62/5/68 55/7/68 54/37/68 
f 55/7/69 48/9/69 46/34/69 54/37/69 
f 46/34/70 48/9/70 41/11/70 40/31/70 
f 41/11/71 34/13/71 32/28/71 40/31/71 
f 32/28/72 34/13/72 27/15/72 23/24/72 
f 27/15/73 26/17/73 24/25/73 23/24/73 
f 76/54/74 77/55/74 78/56/74 79/57/74 13/58/74 12/59/74 80/60/74 81/61/74 
f 73/50/75 76/50/75 81/49/75 72/49/75 
f 75/52/76 70/53/76 79/53/76 78/52/76 
f 10/18/77 13/18/77 79/47/77 70/47/77 
f 71/48/78 80/48/78 12/19/78 11/19/78 
f 73/50/79 74/51/79 77/51/79 76/50/79 
f 71/48/80 72/49/80 81/49/80 80/48/80 
f 75/52/81 78/52/81 77/51/81 74/51/81 
f 82/62/82 83/63/82 84/64/82 85/65/82 
f 83/63/83 86/66/83 87/67/83 84/64/83 
f 86/66/84 88/68/84 89/69/84 87/67/84 
f 88/68/85 90/70/85 91/71/85 89/69/85 
f 90/70/86 92/72/86 93/73/86 91/71/86 
f 92/72/87 94/74/87 95/75/87 93/73/87 
f 90/76/88 88/77/88 86/78/88 83/79/88 82/80/88 96/81/88 94/82/88 92/83/88 
f 94/74/89 96/84/89 97/85/89 95/75/89 
f 96/84/90 82/86/90 85/87/90 97/85/90 
f 98/88/91 99/89/91 100/90/91 101/91/91 102/92/91 103/93/91 104/94/91 105/95/91 
f 97/85/92 85/87/92 101/96/92 100/97/92 
f 95/75/93 97/85/93 100/97/93 99/98/93 
f 93/73/94 95/75/94 99/98/94 98/99/94 
f 91/71/95 93/73/95 98/99/95 105/100/95 
f 89/69/96 91/71/96 105/100/96 104/101/96 
f 87/67/97 89/69/97 104/101/97 103/102/97 
f 84/64/98 87/67/98 103/102/98 102/103/98 
f 85/65/99 84/64/99 102/103/99 101/104/99 
# 91 polygons - 8 triangles

