# 3ds Max Wavefront OBJ Exporter v0.99 - (c)2007 guruware
# File Created: 16.11.2024 22:26:59

#
# object Lowpoly_Pine_01
#

v  0.0000 241.1448 -17.9406
v  6.6349 206.4301 -22.8536
v  0.0000 202.9813 -26.0045
v  10.0988 202.9813 -15.8956
v  6.6349 206.4301 -9.5737
v  0.0000 202.9813 -5.7917
v  -6.6349 206.4301 -9.5737
v  -10.0988 202.9813 -15.8956
v  -6.6349 206.4301 -22.8536
v  27.8930 47.1969 -31.7457
v  42.4605 44.0359 -3.6507
v  11.9318 68.3892 -4.8979
v  7.8417 69.2779 -12.7952
v  -6.6046 114.3137 -13.6385
v  -37.7242 79.1697 -19.6624
v  -15.2896 82.6235 -39.7136
v  0.0000 114.3137 -16.3803
v  -19.9048 123.6702 -27.3678
v  0.0000 120.2164 -37.5373
v  -2.2520 155.3149 -15.7895
v  -5.1555 155.3149 -12.7144
v  -4.4687 183.6168 -18.4708
v  -10.1847 158.7586 -29.8168
v  5.7513 162.4346 -30.4631
v  0.0000 183.6168 -20.3239
v  0.7675 216.9985 -19.6523
v  -1.2624 216.9985 -19.4503
v  -9.3364 114.3137 -7.0187
v  -34.2754 82.6235 9.9524
v  -5.0444 155.3149 -8.4780
v  -30.2965 120.2164 -7.1601
v  -19.1373 162.4346 -17.0519
v  -6.3168 183.6168 -13.9970
v  -2.5500 216.9985 -17.8699
v  -6.6046 114.3137 -0.3989
v  -14.4514 79.1697 32.6192
v  -19.9048 123.6702 12.5478
v  -1.9743 155.3149 -5.5645
v  -4.4687 183.6168 -9.5181
v  -18.9403 158.7586 -0.6261
v  -2.3480 216.9985 -15.8400
v  15.2896 82.6235 28.9836
v  0.0000 114.3137 2.3429
v  2.2520 155.3149 -5.6755
v  0.0000 120.2164 23.2121
v  -5.7513 162.4346 7.8922
v  0.0000 183.6168 -7.6650
v  -0.7675 216.9985 -14.5524
v  6.6046 114.3137 -0.3989
v  37.7242 79.1697 9.3010
v  19.9048 123.6702 12.5478
v  5.1555 155.3149 -8.7557
v  4.4687 183.6168 -9.5181
v  10.1847 158.7586 8.1548
v  1.2624 216.9985 -14.7544
v  34.2754 82.6235 -20.6874
v  9.3364 114.3137 -7.0187
v  30.2965 120.2164 -7.1601
v  5.0444 155.3149 -12.9871
v  19.1373 162.4346 -5.5190
v  6.3168 183.6168 -13.9970
v  2.5500 216.9985 -16.3349
v  6.6046 114.3137 -13.6385
v  14.4514 79.1697 -42.9806
v  19.9048 123.6702 -27.3678
v  1.9743 155.3149 -15.9056
v  18.9403 158.7586 -21.0409
v  4.4687 183.6168 -18.4708
v  2.3480 216.9985 -18.3647
v  0.0000 44.0359 -46.1718
v  27.8930 47.1969 24.1362
v  0.0000 44.0359 38.8754
v  -27.8930 47.1969 24.1362
v  -42.4605 44.0359 -3.6507
v  -27.8930 47.1969 -31.7457
v  -7.8417 69.2779 2.9186
v  -11.9318 68.3892 -4.8979
v  -7.8417 69.2779 -12.7952
v  0.0000 68.3892 -16.8549
v  7.8417 69.2779 2.9186
v  0.0000 68.3892 7.0591
v  0.0000 64.1578 -9.7504
v  3.5497 64.1578 -8.2760
v  4.8626 25.1713 -7.9326
v  0.0000 25.1713 -9.9524
v  5.0191 64.1578 -4.7212
v  6.8773 25.1713 -3.0650
v  3.5497 64.1578 -1.1664
v  4.8626 25.1713 1.8026
v  0.0000 64.1578 0.3080
v  0.0000 25.1713 3.8174
v  -3.5497 64.1578 -1.1664
v  -4.8626 25.1713 1.8026
v  -5.0191 64.1578 -4.7212
v  -6.8773 25.1713 -3.0650
v  -3.5497 64.1578 -8.2760
v  -4.8626 25.1713 -7.9326
v  -7.4630 -1.6966 5.3473
v  -10.5533 -1.6966 -2.1208
v  -7.4630 -1.6966 -9.5888
v  0.0000 -1.6966 -12.6791
v  7.4630 -1.6966 -9.5888
v  10.5533 -1.6966 -2.1208
v  7.4630 -1.6966 5.3473
v  0.0000 -1.6966 8.4426
# 105 vertices

vn 0.3365 0.1947 -0.9213
vn 0.9122 0.2230 -0.3437
vn 0.8998 0.2570 0.3526
vn 0.3597 0.2831 0.8891
vn -0.3597 0.2831 0.8891
vn -0.8998 0.2570 0.3526
vn -0.9122 0.2230 -0.3437
vn -0.3365 0.1947 -0.9213
vn -0.6124 -0.7556 0.2324
vn 0.5283 -0.6211 0.5789
vn 0.3783 -0.4968 0.7810
vn 0.1840 -0.4156 0.8907
vn 0.1871 -0.4022 0.8962
vn 0.7691 -0.6375 0.0457
vn 0.8036 -0.5341 0.2625
vn 0.7082 -0.4542 0.5405
vn 0.8420 -0.4590 0.2834
vn 0.5596 -0.6546 -0.5083
vn 0.7367 -0.5786 -0.3501
vn 0.8375 -0.5184 -0.1731
vn 0.8609 -0.4753 -0.1817
vn 0.0446 -0.6625 -0.7478
vn 0.2441 -0.6066 -0.7566
vn 0.5016 -0.5673 -0.6531
vn 0.2732 -0.5299 -0.8029
vn -0.5085 -0.6562 -0.5575
vn -0.3417 -0.6049 -0.7192
vn -0.1663 -0.5770 -0.7996
vn -0.1782 -0.5187 -0.8362
vn -0.7667 -0.6404 -0.0455
vn -0.7810 -0.5709 -0.2530
vn -0.6616 -0.5536 -0.5059
vn -0.8226 -0.4959 -0.2782
vn -0.5791 -0.6227 0.5262
vn -0.7664 -0.5269 0.3675
vn -0.8565 -0.4850 0.1767
vn -0.8736 -0.4508 0.1835
vn -0.0471 -0.6151 0.7871
vn -0.2735 -0.4935 0.8256
vn -0.5470 -0.4374 0.7138
vn -0.2885 -0.4205 0.8602
vn 0.3900 0.3564 -0.8491
vn 0.8428 0.3752 -0.3859
vn 0.8308 0.4063 0.3804
vn 0.3781 0.4243 0.8228
vn -0.3781 0.4243 0.8228
vn -0.8308 0.4063 0.3804
vn -0.8428 0.3752 -0.3859
vn -0.3900 0.3564 -0.8491
vn -0.0610 0.3238 -0.9442
vn 0.6719 0.3418 -0.6570
vn 0.9234 0.3794 -0.0577
vn 0.6366 0.4234 0.6446
vn 0.0543 0.4391 0.8968
vn -0.6462 0.4228 0.6354
vn -0.9205 0.3866 0.0573
vn -0.6586 0.3409 -0.6708
vn 0.4025 0.2375 -0.8841
vn 0.8738 0.2858 -0.3935
vn 0.8517 0.3611 0.3797
vn 0.3717 0.4051 0.8353
vn -0.3717 0.4051 0.8353
vn -0.8517 0.3611 0.3797
vn -0.8738 0.2858 -0.3935
vn -0.4025 0.2375 -0.8841
vn 0.6078 0.2079 -0.7664
vn 0.9579 0.2760 -0.0796
vn 0.7406 0.3406 0.5793
vn 0.0736 0.3742 0.9244
vn -0.5768 0.3558 0.7353
vn -0.9533 0.2916 0.0787
vn -0.7651 0.2241 -0.6036
vn -0.0846 0.1867 -0.9788
vn 0.0000 -1.0000 0.0000
vn 0.2253 -0.7737 -0.5922
vn 0.2365 -0.7475 0.6208
vn -0.2365 -0.7475 0.6208
vn -0.6015 -0.7656 -0.2282
vn 0.6015 -0.7656 -0.2282
vn -0.2253 -0.7737 -0.5922
vn 0.6124 -0.7556 0.2324
vn 0.3832 0.0048 -0.9237
vn 0.9237 0.0277 -0.3820
vn 0.9224 0.0601 0.3815
vn 0.3819 0.0829 0.9205
vn -0.3819 0.0829 0.9205
vn -0.9224 0.0601 0.3815
vn 0.0000 1.0000 -0.0000
vn -0.9237 0.0277 -0.3820
vn -0.3832 0.0048 -0.9237
vn -0.0000 -1.0000 -0.0000
vn -0.3814 0.0935 -0.9197
vn -0.9182 0.1122 -0.3799
vn -0.9151 0.1385 0.3786
vn -0.3783 0.1569 0.9123
vn 0.3783 0.1569 0.9123
vn 0.9151 0.1385 0.3786
vn 0.9182 0.1122 -0.3799
vn 0.3814 0.0935 -0.9197
# 99 vertex normals

vt 0.8160 0.8005 0.0000
vt 0.8160 0.7998 0.0000
vt 0.8168 0.7998 0.0000
vt 0.8152 0.8005 0.0000
vt 0.8152 0.7998 0.0000
vt 0.8144 0.8005 0.0000
vt 0.8144 0.7998 0.0000
vt 0.8136 0.8005 0.0000
vt 0.8136 0.7998 0.0000
vt 0.8127 0.8005 0.0000
vt 0.8127 0.7998 0.0000
vt 0.8119 0.8005 0.0000
vt 0.8119 0.7998 0.0000
vt 0.8111 0.8005 0.0000
vt 0.8111 0.7998 0.0000
vt 0.8103 0.8005 0.0000
vt 0.8103 0.7998 0.0000
vt 0.8160 0.7972 0.0000
vt 0.8152 0.7972 0.0000
vt 0.8111 0.7978 0.0000
vt 0.8103 0.7978 0.0000
vt 0.8111 0.7985 0.0000
vt 0.8103 0.7985 0.0000
vt 0.8111 0.7992 0.0000
vt 0.8103 0.7992 0.0000
vt 0.8119 0.7978 0.0000
vt 0.8119 0.7985 0.0000
vt 0.8119 0.7992 0.0000
vt 0.8127 0.7978 0.0000
vt 0.8127 0.7985 0.0000
vt 0.8127 0.7992 0.0000
vt 0.8136 0.7978 0.0000
vt 0.8136 0.7985 0.0000
vt 0.8136 0.7992 0.0000
vt 0.8144 0.7978 0.0000
vt 0.8144 0.7985 0.0000
vt 0.8144 0.7992 0.0000
vt 0.8152 0.7978 0.0000
vt 0.8152 0.7985 0.0000
vt 0.8152 0.7992 0.0000
vt 0.8160 0.7978 0.0000
vt 0.8160 0.7985 0.0000
vt 0.8160 0.7992 0.0000
vt 0.8168 0.7978 0.0000
vt 0.8168 0.7985 0.0000
vt 0.8168 0.7992 0.0000
vt 0.8168 0.7972 0.0000
vt 0.8144 0.7972 0.0000
vt 0.8136 0.7972 0.0000
vt 0.8127 0.7972 0.0000
vt 0.8119 0.7972 0.0000
vt 0.8111 0.7972 0.0000
vt 0.8103 0.7972 0.0000
vt 0.8126 0.7977 0.0000
vt 0.8121 0.7988 0.0000
vt 0.8126 0.7999 0.0000
vt 0.8137 0.8004 0.0000
vt 0.8148 0.7999 0.0000
vt 0.8153 0.7988 0.0000
vt 0.8148 0.7977 0.0000
vt 0.8137 0.7972 0.0000
vt 0.8710 0.4930 0.0000
vt 0.8569 0.4930 0.0000
vt 0.8569 0.4587 0.0000
vt 0.8710 0.4587 0.0000
vt 0.8429 0.4930 0.0000
vt 0.8429 0.4587 0.0000
vt 0.8288 0.4930 0.0000
vt 0.8288 0.4587 0.0000
vt 0.8148 0.4930 0.0000
vt 0.8148 0.4587 0.0000
vt 0.8007 0.4930 0.0000
vt 0.8007 0.4587 0.0000
vt 0.7867 0.4930 0.0000
vt 0.7867 0.4587 0.0000
vt 0.7887 0.4372 0.0000
vt 0.8078 0.4451 0.0000
vt 0.8157 0.4642 0.0000
vt 0.8078 0.4833 0.0000
vt 0.7887 0.4912 0.0000
vt 0.7696 0.4833 0.0000
vt 0.7617 0.4642 0.0000
vt 0.7696 0.4451 0.0000
vt 0.7726 0.4930 0.0000
vt 0.7726 0.4587 0.0000
vt 0.7586 0.4930 0.0000
vt 0.7586 0.4587 0.0000
vt 0.8258 0.4451 0.0000
vt 0.8179 0.4642 0.0000
vt 0.8258 0.4833 0.0000
vt 0.8449 0.4912 0.0000
vt 0.8640 0.4833 0.0000
vt 0.8719 0.4642 0.0000
vt 0.8640 0.4451 0.0000
vt 0.8449 0.4372 0.0000
vt 0.7586 0.4368 0.0000
vt 0.7726 0.4368 0.0000
vt 0.7867 0.4368 0.0000
vt 0.8007 0.4368 0.0000
vt 0.8148 0.4368 0.0000
vt 0.8288 0.4368 0.0000
vt 0.8429 0.4368 0.0000
vt 0.8569 0.4368 0.0000
vt 0.8710 0.4368 0.0000
# 104 texture coords

o Lowpoly_Pine_01
g Lowpoly_Pine_01
s 1
f 1/1/1 2/2/1 3/3/1 
f 1/4/2 4/5/2 2/2/2 
f 1/6/3 5/7/3 4/5/3 
f 1/8/4 6/9/4 5/7/4 
f 1/10/5 7/11/5 6/9/5 
f 1/12/6 8/13/6 7/11/6 
f 1/14/7 9/15/7 8/13/7 
f 1/16/8 3/17/8 9/15/8 
f 10/18/9 11/19/9 12/19/9 13/18/9 
f 14/20/10 15/20/10 16/21/10 17/21/10 
f 18/22/11 19/23/11 20/23/11 21/22/11 
f 22/24/12 23/24/12 24/25/12 25/25/12 
f 9/15/13 3/17/13 26/17/13 27/15/13 
f 28/26/14 29/26/14 15/20/14 14/20/14 
f 30/27/15 31/27/15 18/22/15 21/22/15 
f 32/28/16 23/24/16 22/24/16 33/28/16 
f 34/13/17 8/13/17 9/15/17 27/15/17 
f 35/29/18 36/29/18 29/26/18 28/26/18 
f 37/30/19 31/27/19 30/27/19 38/30/19 
f 39/31/20 40/31/20 32/28/20 33/28/20 
f 7/11/21 8/13/21 34/13/21 41/11/21 
f 42/32/22 36/29/22 35/29/22 43/32/22 
f 44/33/23 45/33/23 37/30/23 38/30/23 
f 46/34/24 40/31/24 39/31/24 47/34/24 
f 48/9/25 6/9/25 7/11/25 41/11/25 
f 49/35/26 50/35/26 42/32/26 43/32/26 
f 51/36/27 45/33/27 44/33/27 52/36/27 
f 53/37/28 54/37/28 46/34/28 47/34/28 
f 5/7/29 6/9/29 48/9/29 55/7/29 
f 56/38/30 50/35/30 49/35/30 57/38/30 
f 58/39/31 51/36/31 52/36/31 59/39/31 
f 60/40/32 54/37/32 53/37/32 61/40/32 
f 62/5/33 4/5/33 5/7/33 55/7/33 
f 63/41/34 64/41/34 56/38/34 57/38/34 
f 65/42/35 58/39/35 59/39/35 66/42/35 
f 67/43/36 60/40/36 61/40/36 68/43/36 
f 2/2/37 4/5/37 62/5/37 69/2/37 
f 16/44/38 64/41/38 63/41/38 17/44/38 
f 20/45/39 19/45/39 65/42/39 66/42/39 
f 24/46/40 67/43/40 68/43/40 25/46/40 
f 26/3/41 3/3/41 2/2/41 69/2/41 
f 17/44/42 63/41/42 10/18/42 70/47/42 
f 10/18/43 63/41/43 57/38/43 11/19/43 
f 57/38/44 49/35/44 71/48/44 11/19/44 
f 71/48/45 49/35/45 43/32/45 72/49/45 
f 43/32/46 35/29/46 73/50/46 72/49/46 
f 73/50/47 35/29/47 28/26/47 74/51/47 
f 28/26/48 14/20/48 75/52/48 74/51/48 
f 75/52/49 14/20/49 17/21/49 70/53/49 
f 16/44/50 20/45/50 66/42/50 64/41/50 
f 66/42/51 59/39/51 56/38/51 64/41/51 
f 56/38/52 59/39/52 52/36/52 50/35/52 
f 52/36/53 44/33/53 42/32/53 50/35/53 
f 42/32/54 44/33/54 38/30/54 36/29/54 
f 38/30/55 30/27/55 29/26/55 36/29/55 
f 29/26/56 30/27/56 21/22/56 15/20/56 
f 21/22/57 20/23/57 16/21/57 15/20/57 
f 25/46/58 68/43/58 65/42/58 19/45/58 
f 65/42/59 68/43/59 61/40/59 58/39/59 
f 61/40/60 53/37/60 51/36/60 58/39/60 
f 51/36/61 53/37/61 47/34/61 45/33/61 
f 47/34/62 39/31/62 37/30/62 45/33/62 
f 37/30/63 39/31/63 33/28/63 31/27/63 
f 33/28/64 22/24/64 18/22/64 31/27/64 
f 18/22/65 22/24/65 25/25/65 19/23/65 
f 24/46/66 26/3/66 69/2/66 67/43/66 
f 69/2/67 62/5/67 60/40/67 67/43/67 
f 60/40/68 62/5/68 55/7/68 54/37/68 
f 55/7/69 48/9/69 46/34/69 54/37/69 
f 46/34/70 48/9/70 41/11/70 40/31/70 
f 41/11/71 34/13/71 32/28/71 40/31/71 
f 32/28/72 34/13/72 27/15/72 23/24/72 
f 27/15/73 26/17/73 24/25/73 23/24/73 
f 76/54/74 77/55/74 78/56/74 79/57/74 13/58/74 12/59/74 80/60/74 81/61/74 
f 73/50/75 76/50/75 81/49/75 72/49/75 
f 75/52/76 70/53/76 79/53/76 78/52/76 
f 10/18/77 13/18/77 79/47/77 70/47/77 
f 71/48/78 80/48/78 12/19/78 11/19/78 
f 73/50/79 74/51/79 77/51/79 76/50/79 
f 71/48/80 72/49/80 81/49/80 80/48/80 
f 75/52/81 78/52/81 77/51/81 74/51/81 
f 82/62/82 83/63/82 84/64/82 85/65/82 
f 84/64/83 83/63/83 86/66/83 87/67/83 
f 87/67/84 86/66/84 88/68/84 89/69/84 
f 88/68/85 90/70/85 91/71/85 89/69/85 
f 90/70/86 92/72/86 93/73/86 91/71/86 
f 92/72/87 94/74/87 95/75/87 93/73/87 
f 90/76/88 88/77/88 86/78/88 83/79/88 82/80/88 96/81/88 94/82/88 92/83/88 
f 94/74/89 96/84/89 97/85/89 95/75/89 
f 96/84/90 82/86/90 85/87/90 97/85/90 
f 98/88/91 99/89/91 100/90/91 101/91/91 102/92/91 103/93/91 104/94/91 105/95/91 
f 97/85/92 85/87/92 101/96/92 100/97/92 
f 95/75/93 97/85/93 100/97/93 99/98/93 
f 93/73/94 95/75/94 99/98/94 98/99/94 
f 91/71/95 93/73/95 98/99/95 105/100/95 
f 104/101/96 89/69/96 91/71/96 105/100/96 
f 103/102/97 87/67/97 89/69/97 104/101/97 
f 102/103/98 84/64/98 87/67/98 103/102/98 
f 101/104/99 85/65/99 84/64/99 102/103/99 
# 91 polygons - 8 triangles

