# 3ds Max Wavefront OBJ Exporter v0.99 - (c)2007 guruware
# File Created: 16.02.2024 20:10:08

#
# object Lowpoly_Pine_01
#

v  0.0000 4.0199 -0.5150
v  0.0000 4.7757 -0.3553
v  0.1314 4.0882 -0.4526
v  0.2000 4.0199 -0.3148
v  0.1314 4.0882 -0.1896
v  0.0000 4.0199 -0.1147
v  -0.1314 4.0882 -0.1896
v  -0.2000 4.0199 -0.3148
v  -0.1314 4.0882 -0.4526
v  0.5524 0.9347 -0.6287
v  0.8409 0.8721 -0.0723
v  0.2363 1.3544 -0.0970
v  0.1553 1.3720 -0.2534
v  -0.1308 2.2639 -0.2701
v  -0.7471 1.5679 -0.3894
v  -0.3028 1.6363 -0.7865
v  0.0000 2.2639 -0.3244
v  -0.1021 3.0759 -0.2518
v  -0.3942 2.4492 -0.5420
v  0.0000 2.3808 -0.7434
v  -0.0446 3.0759 -0.3127
v  -0.0885 3.6364 -0.3658
v  -0.2017 3.1441 -0.5905
v  0.1139 3.2169 -0.6033
v  0.0000 3.6364 -0.4025
v  -0.0250 4.2975 -0.3852
v  0.0152 4.2975 -0.3892
v  -0.1849 2.2639 -0.1390
v  -0.6788 1.6363 0.1971
v  -0.0999 3.0759 -0.1679
v  -0.6000 2.3808 -0.1418
v  -0.1251 3.6364 -0.2772
v  -0.3790 3.2169 -0.3377
v  -0.0505 4.2975 -0.3539
v  -0.1308 2.2639 -0.0079
v  -0.2862 1.5679 0.6460
v  -0.0391 3.0759 -0.1102
v  -0.3942 2.4492 0.2485
v  -0.0885 3.6364 -0.1885
v  -0.3751 3.1441 -0.0124
v  -0.0465 4.2975 -0.3137
v  0.0000 2.2639 0.0464
v  0.3028 1.6363 0.5740
v  0.0446 3.0759 -0.1124
v  0.0000 2.3808 0.4597
v  0.0000 3.6364 -0.1518
v  -0.1139 3.2169 0.1563
v  -0.0152 4.2975 -0.2882
v  0.1308 2.2639 -0.0079
v  0.7471 1.5679 0.1842
v  0.1021 3.0759 -0.1734
v  0.3942 2.4492 0.2485
v  0.0885 3.6364 -0.1885
v  0.2017 3.1441 0.1615
v  0.0250 4.2975 -0.2922
v  0.1849 2.2639 -0.1390
v  0.6788 1.6363 -0.4097
v  0.0999 3.0759 -0.2572
v  0.6000 2.3808 -0.1418
v  0.1251 3.6364 -0.2772
v  0.3790 3.2169 -0.1093
v  0.0505 4.2975 -0.3235
v  0.1308 2.2639 -0.2701
v  0.2862 1.5679 -0.8512
v  0.0391 3.0759 -0.3150
v  0.3942 2.4492 -0.5420
v  0.0885 3.6364 -0.3658
v  0.3751 3.1441 -0.4167
v  0.0465 4.2975 -0.3637
v  0.0000 0.8721 -0.9144
v  0.5524 0.9347 0.4780
v  0.0000 0.8721 0.7699
v  -0.5524 0.9347 0.4780
v  -0.8409 0.8721 -0.0723
v  -0.5524 0.9347 -0.6287
v  0.0000 1.3544 -0.3338
v  0.1553 1.3720 0.0578
v  0.0000 1.3544 0.1398
v  -0.1553 1.3720 0.0578
v  -0.2363 1.3544 -0.0970
v  -0.1553 1.3720 -0.2534
v  0.0000 0.4985 -0.1971
v  0.0000 1.2706 -0.1931
v  0.0703 1.2706 -0.1639
v  0.0963 0.4985 -0.1571
v  0.0994 1.2706 -0.0935
v  0.1362 0.4985 -0.0607
v  0.0703 1.2706 -0.0231
v  0.0963 0.4985 0.0357
v  0.0000 1.2706 0.0061
v  0.0000 0.4985 0.0756
v  -0.0703 1.2706 -0.0231
v  -0.0963 0.4985 0.0357
v  -0.0994 1.2706 -0.0935
v  -0.1362 0.4985 -0.0607
v  -0.0703 1.2706 -0.1639
v  -0.0963 0.4985 -0.1571
v  0.0000 -0.0336 -0.2511
v  0.1478 -0.0336 -0.1899
v  0.2090 -0.0336 -0.0420
v  0.1478 -0.0336 0.1059
v  0.0000 -0.0336 0.1672
v  -0.1478 -0.0336 0.1059
v  -0.2090 -0.0336 -0.0420
v  -0.1478 -0.0336 -0.1899
# 105 vertices

vn 0.3365 0.1947 -0.9213
vn 0.9122 0.2230 -0.3437
vn 0.8998 0.2570 0.3526
vn 0.3597 0.2831 0.8891
vn -0.3597 0.2831 0.8891
vn -0.8998 0.2570 0.3526
vn 0.0000 1.0000 -0.0000
vn -0.9122 0.2230 -0.3437
vn -0.3365 0.1947 -0.9213
vn -0.6124 -0.7556 0.2324
vn 0.5283 -0.6211 0.5789
vn 0.3783 -0.4968 0.7810
vn 0.1840 -0.4156 0.8907
vn 0.1871 -0.4022 0.8962
vn 0.7691 -0.6375 0.0457
vn 0.8036 -0.5341 0.2625
vn 0.7082 -0.4542 0.5405
vn 0.8420 -0.4590 0.2834
vn 0.5596 -0.6546 -0.5083
vn 0.7367 -0.5786 -0.3501
vn 0.8375 -0.5184 -0.1731
vn 0.8609 -0.4753 -0.1817
vn 0.0446 -0.6625 -0.7478
vn 0.2441 -0.6066 -0.7566
vn 0.5016 -0.5673 -0.6531
vn 0.2732 -0.5299 -0.8029
vn -0.5085 -0.6562 -0.5575
vn -0.3417 -0.6049 -0.7192
vn -0.1663 -0.5770 -0.7996
vn -0.1782 -0.5187 -0.8362
vn -0.7667 -0.6404 -0.0455
vn -0.7810 -0.5709 -0.2530
vn -0.6616 -0.5536 -0.5059
vn -0.8226 -0.4959 -0.2782
vn -0.5791 -0.6227 0.5262
vn -0.7664 -0.5269 0.3675
vn -0.8565 -0.4850 0.1767
vn -0.8736 -0.4508 0.1835
vn -0.0471 -0.6151 0.7871
vn -0.2735 -0.4935 0.8256
vn -0.5470 -0.4374 0.7138
vn -0.2885 -0.4205 0.8602
vn 0.3900 0.3564 -0.8491
vn 0.8428 0.3752 -0.3859
vn 0.8308 0.4063 0.3804
vn 0.3781 0.4243 0.8228
vn -0.3781 0.4243 0.8228
vn -0.8308 0.4063 0.3804
vn -0.8428 0.3752 -0.3859
vn -0.3900 0.3564 -0.8491
vn -0.0610 0.3238 -0.9442
vn 0.6719 0.3418 -0.6570
vn 0.9234 0.3794 -0.0577
vn 0.6366 0.4234 0.6446
vn 0.0543 0.4391 0.8968
vn -0.6462 0.4228 0.6354
vn -0.9205 0.3866 0.0573
vn -0.6586 0.3409 -0.6708
vn 0.4025 0.2375 -0.8841
vn 0.8738 0.2858 -0.3935
vn 0.8517 0.3611 0.3797
vn 0.3717 0.4051 0.8353
vn -0.3717 0.4051 0.8353
vn -0.8517 0.3611 0.3797
vn -0.8738 0.2858 -0.3935
vn -0.4025 0.2375 -0.8841
vn 0.6078 0.2079 -0.7664
vn 0.9579 0.2760 -0.0796
vn 0.7406 0.3406 0.5793
vn 0.0736 0.3742 0.9244
vn -0.5768 0.3558 0.7353
vn -0.9533 0.2916 0.0787
vn -0.7651 0.2241 -0.6036
vn -0.0846 0.1867 -0.9788
vn 0.0000 -1.0000 0.0000
vn 0.2253 -0.7737 -0.5922
vn 0.2365 -0.7475 0.6208
vn -0.2365 -0.7475 0.6208
vn -0.6015 -0.7656 -0.2282
vn 0.6015 -0.7656 -0.2282
vn -0.2253 -0.7737 -0.5922
vn 0.6124 -0.7556 0.2324
vn 0.3832 0.0048 -0.9237
vn 0.9237 0.0277 -0.3820
vn 0.9224 0.0601 0.3815
vn 0.3819 0.0829 0.9205
vn -0.3819 0.0829 0.9205
vn -0.9224 0.0601 0.3815
vn -0.9237 0.0277 -0.3820
vn -0.3832 0.0048 -0.9237
vn -0.0000 -1.0000 -0.0000
vn -0.3814 0.0935 -0.9197
vn -0.9182 0.1122 -0.3799
vn -0.9151 0.1385 0.3786
vn -0.3783 0.1569 0.9123
vn 0.3783 0.1569 0.9123
vn 0.9151 0.1385 0.3786
vn 0.9182 0.1122 -0.3799
vn 0.3814 0.0935 -0.9197
# 99 vertex normals

vt 0.4020 0.5789 0.0000
vt 0.4020 0.6125 0.0000
vt 0.3599 0.6125 0.0000
vt 0.3599 0.5789 0.0000
vt 0.3178 0.6125 0.0000
vt 0.3178 0.5789 0.0000
vt 0.2757 0.6125 0.0000
vt 0.2757 0.5789 0.0000
vt 0.2336 0.6125 0.0000
vt 0.2336 0.5789 0.0000
vt 0.1916 0.6125 0.0000
vt 0.1916 0.5789 0.0000
vt 0.1495 0.6125 0.0000
vt 0.1495 0.5789 0.0000
vt 0.2066 0.4171 0.0000
vt 0.1495 0.4408 0.0000
vt 0.0923 0.4171 0.0000
vt 0.0686 0.3600 0.0000
vt 0.0923 0.3028 0.0000
vt 0.1495 0.2791 0.0000
vt 0.2066 0.3028 0.0000
vt 0.2303 0.3600 0.0000
vt 0.1074 0.6125 0.0000
vt 0.1074 0.5789 0.0000
vt 0.0653 0.6125 0.0000
vt 0.0653 0.5789 0.0000
vt 0.3599 0.4442 0.0000
vt 0.3178 0.4442 0.0000
vt 0.1074 0.4778 0.0000
vt 0.0653 0.4778 0.0000
vt 0.1074 0.5115 0.0000
vt 0.0653 0.5115 0.0000
vt 0.1074 0.5452 0.0000
vt 0.0653 0.5452 0.0000
vt 0.1495 0.4778 0.0000
vt 0.1495 0.5115 0.0000
vt 0.1495 0.5452 0.0000
vt 0.1916 0.4778 0.0000
vt 0.1916 0.5115 0.0000
vt 0.1916 0.5452 0.0000
vt 0.2336 0.4778 0.0000
vt 0.2336 0.5115 0.0000
vt 0.2336 0.5452 0.0000
vt 0.2757 0.4778 0.0000
vt 0.2757 0.5115 0.0000
vt 0.2757 0.5452 0.0000
vt 0.3178 0.4778 0.0000
vt 0.3178 0.5115 0.0000
vt 0.3178 0.5452 0.0000
vt 0.3599 0.4778 0.0000
vt 0.3599 0.5115 0.0000
vt 0.3599 0.5452 0.0000
vt 0.4020 0.4778 0.0000
vt 0.4020 0.5115 0.0000
vt 0.4020 0.5452 0.0000
vt 0.4020 0.4442 0.0000
vt 0.2757 0.4442 0.0000
vt 0.2336 0.4442 0.0000
vt 0.1916 0.4442 0.0000
vt 0.1495 0.4442 0.0000
vt 0.1074 0.4442 0.0000
vt 0.0653 0.4442 0.0000
vt 0.3178 0.4408 0.0000
vt 0.3750 0.4171 0.0000
vt 0.3987 0.3600 0.0000
vt 0.3750 0.3028 0.0000
vt 0.3178 0.2791 0.0000
vt 0.2607 0.3028 0.0000
vt 0.2370 0.3600 0.0000
vt 0.2607 0.4171 0.0000
vt 0.9294 0.5294 0.0000
vt 0.9294 0.6391 0.0000
vt 0.8845 0.6391 0.0000
vt 0.8845 0.5294 0.0000
vt 0.8396 0.6391 0.0000
vt 0.8396 0.5294 0.0000
vt 0.7946 0.6391 0.0000
vt 0.7946 0.5294 0.0000
vt 0.7497 0.6391 0.0000
vt 0.7497 0.5294 0.0000
vt 0.7048 0.6391 0.0000
vt 0.7048 0.5294 0.0000
vt 0.6599 0.6391 0.0000
vt 0.6599 0.5294 0.0000
vt 0.7209 0.4306 0.0000
vt 0.6599 0.4558 0.0000
vt 0.5989 0.4306 0.0000
vt 0.5736 0.3696 0.0000
vt 0.5989 0.3086 0.0000
vt 0.6599 0.2834 0.0000
vt 0.7209 0.3086 0.0000
vt 0.7461 0.3696 0.0000
vt 0.6150 0.6391 0.0000
vt 0.6150 0.5294 0.0000
vt 0.5701 0.6391 0.0000
vt 0.5701 0.5294 0.0000
vt 0.8396 0.4558 0.0000
vt 0.9005 0.4306 0.0000
vt 0.9258 0.3696 0.0000
vt 0.9005 0.3086 0.0000
vt 0.8396 0.2834 0.0000
vt 0.7786 0.3086 0.0000
vt 0.7533 0.3696 0.0000
vt 0.7786 0.4306 0.0000
vt 0.6150 0.4594 0.0000
vt 0.5701 0.4594 0.0000
vt 0.6599 0.4594 0.0000
vt 0.7048 0.4594 0.0000
vt 0.7497 0.4594 0.0000
vt 0.7946 0.4594 0.0000
vt 0.8396 0.4594 0.0000
vt 0.8845 0.4594 0.0000
vt 0.9294 0.4594 0.0000
# 113 texture coords

o Lowpoly_Pine_01
g Lowpoly_Pine_01
f 1/1/1 2/2/1 2/3/1 3/4/1 
f 3/4/2 2/3/2 2/5/2 4/6/2 
f 4/6/3 2/5/3 2/7/3 5/8/3 
f 5/8/4 2/7/4 2/9/4 6/10/4 
f 6/10/5 2/9/5 2/11/5 7/12/5 
f 7/12/6 2/11/6 2/13/6 8/14/6 
f 2/15/7 2/16/7 2/17/7 2/18/7 2/19/7 2/20/7 2/21/7 2/22/7 
f 8/14/8 2/13/8 2/23/8 9/24/8 
f 9/24/9 2/23/9 2/25/9 1/26/9 
f 10/27/10 11/28/10 12/28/10 13/27/10 
f 14/29/11 15/29/11 16/30/11 17/30/11 
f 18/31/12 19/31/12 20/32/12 21/32/12 
f 22/33/13 23/33/13 24/34/13 25/34/13 
f 26/24/14 9/24/14 1/26/14 27/26/14 
f 28/35/15 29/35/15 15/29/15 14/29/15 
f 30/36/16 31/36/16 19/31/16 18/31/16 
f 32/37/17 33/37/17 23/33/17 22/33/17 
f 34/14/18 8/14/18 9/24/18 26/24/18 
f 35/38/19 36/38/19 29/35/19 28/35/19 
f 37/39/20 38/39/20 31/36/20 30/36/20 
f 39/40/21 40/40/21 33/37/21 32/37/21 
f 41/12/22 7/12/22 8/14/22 34/14/22 
f 42/41/23 43/41/23 36/38/23 35/38/23 
f 44/42/24 45/42/24 38/39/24 37/39/24 
f 46/43/25 47/43/25 40/40/25 39/40/25 
f 48/10/26 6/10/26 7/12/26 41/12/26 
f 49/44/27 50/44/27 43/41/27 42/41/27 
f 51/45/28 52/45/28 45/42/28 44/42/28 
f 53/46/29 54/46/29 47/43/29 46/43/29 
f 55/8/30 5/8/30 6/10/30 48/10/30 
f 56/47/31 57/47/31 50/44/31 49/44/31 
f 58/48/32 59/48/32 52/45/32 51/45/32 
f 60/49/33 61/49/33 54/46/33 53/46/33 
f 62/6/34 4/6/34 5/8/34 55/8/34 
f 63/50/35 64/50/35 57/47/35 56/47/35 
f 65/51/36 66/51/36 59/48/36 58/48/36 
f 67/52/37 68/52/37 61/49/37 60/49/37 
f 69/4/38 3/4/38 4/6/38 62/6/38 
f 17/53/39 16/53/39 64/50/39 63/50/39 
f 21/54/40 20/54/40 66/51/40 65/51/40 
f 25/55/41 24/55/41 68/52/41 67/52/41 
f 27/1/42 1/1/42 3/4/42 69/4/42 
f 70/56/43 17/53/43 63/50/43 10/27/43 
f 10/27/44 63/50/44 56/47/44 11/28/44 
f 11/28/45 56/47/45 49/44/45 71/57/45 
f 71/57/46 49/44/46 42/41/46 72/58/46 
f 72/58/47 42/41/47 35/38/47 73/59/47 
f 73/59/48 35/38/48 28/35/48 74/60/48 
f 74/60/49 28/35/49 14/29/49 75/61/49 
f 75/61/50 14/29/50 17/30/50 70/62/50 
f 16/53/51 21/54/51 65/51/51 64/50/51 
f 64/50/52 65/51/52 58/48/52 57/47/52 
f 57/47/53 58/48/53 51/45/53 50/44/53 
f 50/44/54 51/45/54 44/42/54 43/41/54 
f 43/41/55 44/42/55 37/39/55 36/38/55 
f 36/38/56 37/39/56 30/36/56 29/35/56 
f 29/35/57 30/36/57 18/31/57 15/29/57 
f 15/29/58 18/31/58 21/32/58 16/30/58 
f 20/54/59 25/55/59 67/52/59 66/51/59 
f 66/51/60 67/52/60 60/49/60 59/48/60 
f 59/48/61 60/49/61 53/46/61 52/45/61 
f 52/45/62 53/46/62 46/43/62 45/42/62 
f 45/42/63 46/43/63 39/40/63 38/39/63 
f 38/39/64 39/40/64 32/37/64 31/36/64 
f 31/36/65 32/37/65 22/33/65 19/31/65 
f 19/31/66 22/33/66 25/34/66 20/32/66 
f 24/55/67 27/1/67 69/4/67 68/52/67 
f 68/52/68 69/4/68 62/6/68 61/49/68 
f 61/49/69 62/6/69 55/8/69 54/46/69 
f 54/46/70 55/8/70 48/10/70 47/43/70 
f 47/43/71 48/10/71 41/12/71 40/40/71 
f 40/40/72 41/12/72 34/14/72 33/37/72 
f 33/37/73 34/14/73 26/24/73 23/33/73 
f 23/33/74 26/24/74 27/26/74 24/34/74 
f 76/63/75 13/64/75 12/65/75 77/66/75 78/67/75 79/68/75 80/69/75 81/70/75 
f 72/58/76 73/59/76 79/59/76 78/58/76 
f 75/61/77 70/62/77 76/62/77 81/61/77 
f 70/56/78 10/27/78 13/27/78 76/56/78 
f 11/28/79 71/57/79 77/57/79 12/28/79 
f 73/59/80 74/60/80 80/60/80 79/59/80 
f 71/57/81 72/58/81 78/58/81 77/57/81 
f 74/60/82 75/61/82 81/61/82 80/60/82 
f 82/71/83 83/72/83 84/73/83 85/74/83 
f 85/74/84 84/73/84 86/75/84 87/76/84 
f 87/76/85 86/75/85 88/77/85 89/78/85 
f 89/78/86 88/77/86 90/79/86 91/80/86 
f 91/80/87 90/79/87 92/81/87 93/82/87 
f 93/82/88 92/81/88 94/83/88 95/84/88 
f 84/85/7 83/86/7 96/87/7 94/88/7 92/89/7 90/90/7 88/91/7 86/92/7 
f 95/84/89 94/83/89 96/93/89 97/94/89 
f 97/94/90 96/93/90 83/95/90 82/96/90 
f 98/97/91 99/98/91 100/99/91 101/100/91 102/101/91 103/102/91 104/103/91 105/104/91 
f 105/105/92 97/94/92 82/96/92 98/106/92 
f 104/107/93 95/84/93 97/94/93 105/105/93 
f 103/108/94 93/82/94 95/84/94 104/107/94 
f 102/109/95 91/80/95 93/82/95 103/108/95 
f 101/110/96 89/78/96 91/80/96 102/109/96 
f 100/111/97 87/76/97 89/78/97 101/110/97 
f 99/112/98 85/74/98 87/76/98 100/111/98 
f 98/113/99 82/71/99 85/74/99 99/112/99 
# 100 polygons

