# 3ds Max Wavefront OBJ Exporter v0.99 - (c)2007 guruware
# File Created: 16.02.2024 20:10:18

#
# object Lowpoly_Pine_02
#

v  0.0025 3.5744 -0.1108
v  0.0028 4.1822 0.2967
v  0.1339 3.6137 -0.0284
v  0.2025 3.5224 0.0821
v  0.1339 3.5434 0.2246
v  0.0025 3.4701 0.2749
v  -0.1289 3.5434 0.2246
v  -0.1975 3.5224 0.0821
v  -0.1289 3.6137 -0.0284
v  0.5533 0.9595 -0.5309
v  0.8417 0.8969 0.0215
v  0.2372 1.3627 0.0255
v  0.1561 1.3786 -0.1295
v  -0.1296 2.1428 -0.1642
v  -0.7462 1.5645 -0.2600
v  -0.3019 1.6251 -0.6532
v  0.0012 2.1458 -0.2175
v  -0.1003 2.7768 -0.0878
v  -0.3929 2.3203 -0.4249
v  0.0012 2.2752 -0.6230
v  -0.0428 2.7860 -0.1474
v  -0.0863 3.2295 -0.0786
v  -0.1999 2.8903 -0.4070
v  0.1158 2.9501 -0.4066
v  0.0022 3.2376 -0.1143
v  -0.0223 3.7657 0.1077
v  0.0178 3.7669 0.1038
v  -0.1837 2.1355 -0.0353
v  -0.6779 1.6222 0.3235
v  -0.0981 2.7641 -0.0058
v  -0.5988 2.2418 -0.0312
v  -0.1229 3.2101 0.0074
v  -0.3771 2.9080 -0.1468
v  -0.0479 3.7567 0.1377
v  -0.1295 2.1279 0.0936
v  -0.2853 1.5623 0.7694
v  -0.0373 2.7553 0.0506
v  -0.3929 2.2664 0.3520
v  -0.0863 3.1906 0.0934
v  -0.3733 2.8032 0.1586
v  -0.0438 3.7451 0.1761
v  0.0012 2.1247 0.1469
v  0.3037 1.6199 0.6974
v  0.0464 2.7557 0.0484
v  0.0013 2.2029 0.5601
v  0.0022 3.1824 0.1290
v  -0.1121 2.8271 0.3358
v  -0.0125 3.7378 0.2006
v  0.1320 2.1279 0.0936
v  0.7479 1.5637 0.3105
v  0.1040 2.7650 -0.0111
v  0.3955 2.2664 0.3520
v  0.0907 3.1906 0.0934
v  0.2035 2.7760 0.3285
v  0.0276 3.7389 0.1967
v  0.1862 2.1355 -0.0353
v  0.6797 1.6244 -0.2788
v  0.1017 2.7777 -0.0931
v  0.6012 2.2418 -0.0312
v  0.1274 3.2101 0.0074
v  0.3808 2.8710 0.0764
v  0.0532 3.7479 0.1667
v  0.1320 2.1428 -0.1642
v  0.2871 1.5646 -0.7197
v  0.0409 2.7863 -0.1496
v  0.3955 2.3203 -0.4249
v  0.0907 3.2295 -0.0786
v  0.3769 2.8646 -0.2369
v  0.0491 3.7595 0.1283
v  0.0009 0.8969 -0.8194
v  0.5533 0.9595 0.5739
v  0.0009 0.8969 0.8624
v  -0.5516 0.9595 0.5739
v  -0.8400 0.8969 0.0215
v  -0.5516 0.9595 -0.5309
v  0.0009 1.3627 -0.2106
v  0.1561 1.3786 0.1806
v  0.0009 1.3627 0.2616
v  -0.1544 1.3786 0.1806
v  -0.2355 1.3627 0.0255
v  -0.1544 1.3786 -0.1295
v  0.0009 0.5233 -0.1147
v  0.0009 1.2849 -0.0752
v  0.0712 1.2849 -0.0461
v  0.0971 0.5233 -0.0748
v  0.1003 1.2849 0.0242
v  0.1370 0.5233 0.0215
v  0.0712 1.2849 0.0945
v  0.0971 0.5233 0.1178
v  0.0009 1.2849 0.1236
v  0.0009 0.5233 0.1577
v  -0.0694 1.2849 0.0945
v  -0.0954 0.5233 0.1178
v  -0.0985 1.2849 0.0242
v  -0.1353 0.5233 0.0215
v  -0.0694 1.2849 -0.0461
v  -0.0954 0.5233 -0.0748
v  0.0009 -0.0088 -0.1875
v  0.1486 -0.0088 -0.1263
v  0.2098 -0.0088 0.0215
v  0.1486 -0.0088 0.1693
v  0.0009 -0.0088 0.2305
v  -0.1469 -0.0088 0.1693
v  -0.2081 -0.0088 0.0215
v  -0.1469 -0.0088 -0.1263
# 105 vertices

vn 0.3339 0.5247 -0.7830
vn 0.8969 0.3565 -0.2617
vn 0.9003 0.1382 0.4128
vn 0.3713 -0.0285 0.9281
vn -0.3714 -0.0282 0.9281
vn -0.9000 0.1389 0.4132
vn 0.0000 1.0000 -0.0000
vn -0.8966 0.3572 -0.2617
vn -0.3340 0.5249 -0.7829
vn -0.5928 -0.7736 0.2238
vn 0.4963 -0.6777 0.5426
vn 0.3344 -0.6552 0.6774
vn 0.1770 -0.6926 0.6993
vn 0.1692 -0.7319 0.6600
vn 0.7048 -0.7085 0.0362
vn 0.7287 -0.6592 0.1855
vn 0.6395 -0.6615 0.3917
vn 0.8002 -0.5883 0.1162
vn 0.4867 -0.7394 -0.4653
vn 0.6551 -0.6566 -0.3738
vn 0.7751 -0.5746 -0.2627
vn 0.8383 -0.4460 -0.3136
vn 0.0396 -0.7504 -0.6598
vn 0.2259 -0.6519 -0.7239
vn 0.4626 -0.5144 -0.7221
vn 0.2819 -0.2820 -0.9171
vn -0.4490 -0.7425 -0.4971
vn -0.3070 -0.6502 -0.6950
vn -0.1435 -0.4924 -0.8584
vn -0.1874 -0.2583 -0.9477
vn -0.6956 -0.7164 -0.0545
vn -0.6993 -0.6537 -0.2893
vn -0.6212 -0.5336 -0.5739
vn -0.8037 -0.4327 -0.4085
vn -0.5434 -0.6823 0.4891
vn -0.6982 -0.6562 0.2863
vn -0.7885 -0.6121 0.0601
vn -0.8367 -0.5469 0.0300
vn -0.0452 -0.6657 0.7449
vn -0.2342 -0.6508 0.7222
vn -0.4984 -0.6783 0.5400
vn -0.2638 -0.7371 0.6222
vn 0.3824 0.3982 -0.8338
vn 0.8287 0.4164 -0.3740
vn 0.8131 0.4470 0.3728
vn 0.3594 0.4665 0.8082
vn -0.3594 0.4666 0.8081
vn -0.8130 0.4474 0.3727
vn -0.8286 0.4168 -0.3739
vn -0.3824 0.3984 -0.8337
vn -0.0561 0.4112 -0.9098
vn 0.6464 0.4258 -0.6332
vn 0.8878 0.4583 -0.0431
vn 0.6035 0.4930 0.6267
vn 0.0514 0.5059 0.8611
vn -0.6106 0.4942 0.6188
vn -0.8836 0.4642 0.0622
vn -0.6378 0.4264 -0.6413
vn 0.3652 0.4352 -0.8229
vn 0.8420 0.4189 -0.3400
vn 0.8210 0.3867 0.4201
vn 0.3750 0.3681 0.8508
vn -0.3748 0.3687 0.8506
vn -0.8204 0.3880 0.4200
vn -0.8415 0.4203 -0.3395
vn -0.3651 0.4358 -0.8227
vn 0.5858 0.4798 -0.6532
vn 0.9364 0.3506 -0.0161
vn 0.7517 0.2198 0.6218
vn 0.0511 0.1429 0.9884
vn -0.5650 0.1819 0.8048
vn -0.9374 0.3228 0.1307
vn -0.7241 0.4537 -0.5195
vn -0.0970 0.5190 -0.8492
vn 0.0000 -1.0000 -0.0001
vn 0.2255 -0.7707 -0.5959
vn 0.2228 -0.7751 0.5913
vn -0.2228 -0.7751 0.5913
vn -0.5946 -0.7720 -0.2249
vn 0.5946 -0.7720 -0.2249
vn -0.2255 -0.7707 -0.5959
vn 0.5928 -0.7736 0.2238
vn 0.3822 0.0478 -0.9228
vn 0.9229 0.0459 -0.3823
vn 0.9230 0.0432 0.3823
vn 0.3824 0.0413 0.9231
vn -0.3824 0.0413 0.9231
vn -0.9230 0.0432 0.3823
vn -0.9229 0.0459 -0.3823
vn -0.3822 0.0478 -0.9228
vn -0.0000 -1.0000 -0.0000
vn -0.3797 0.1254 -0.9166
vn -0.9166 0.1254 -0.3797
vn -0.9166 0.1254 0.3797
vn -0.3797 0.1254 0.9166
vn 0.3797 0.1254 0.9166
vn 0.9166 0.1254 0.3797
vn 0.9166 0.1254 -0.3797
vn 0.3797 0.1254 -0.9166
# 99 vertex normals

vt 0.4286 0.6037 0.0000
vt 0.4286 0.6404 0.0000
vt 0.3827 0.6404 0.0000
vt 0.3827 0.6037 0.0000
vt 0.3368 0.6404 0.0000
vt 0.3368 0.6037 0.0000
vt 0.2909 0.6404 0.0000
vt 0.2909 0.6037 0.0000
vt 0.2450 0.6404 0.0000
vt 0.2450 0.6037 0.0000
vt 0.1991 0.6404 0.0000
vt 0.1991 0.6037 0.0000
vt 0.1532 0.6404 0.0000
vt 0.1532 0.6037 0.0000
vt 0.2155 0.4273 0.0000
vt 0.1532 0.4531 0.0000
vt 0.0908 0.4273 0.0000
vt 0.0650 0.3650 0.0000
vt 0.0908 0.3027 0.0000
vt 0.1532 0.2769 0.0000
vt 0.2155 0.3027 0.0000
vt 0.2413 0.3650 0.0000
vt 0.1073 0.6404 0.0000
vt 0.1073 0.6037 0.0000
vt 0.0614 0.6404 0.0000
vt 0.0614 0.6037 0.0000
vt 0.3827 0.4568 0.0000
vt 0.3368 0.4568 0.0000
vt 0.1073 0.4935 0.0000
vt 0.0614 0.4935 0.0000
vt 0.1073 0.5302 0.0000
vt 0.0614 0.5302 0.0000
vt 0.1073 0.5670 0.0000
vt 0.0614 0.5670 0.0000
vt 0.1532 0.4935 0.0000
vt 0.1532 0.5302 0.0000
vt 0.1532 0.5670 0.0000
vt 0.1991 0.4935 0.0000
vt 0.1991 0.5302 0.0000
vt 0.1991 0.5670 0.0000
vt 0.2450 0.4935 0.0000
vt 0.2450 0.5302 0.0000
vt 0.2450 0.5670 0.0000
vt 0.2909 0.4935 0.0000
vt 0.2909 0.5302 0.0000
vt 0.2909 0.5670 0.0000
vt 0.3368 0.4935 0.0000
vt 0.3368 0.5302 0.0000
vt 0.3368 0.5670 0.0000
vt 0.3827 0.4935 0.0000
vt 0.3827 0.5302 0.0000
vt 0.3827 0.5670 0.0000
vt 0.4286 0.4935 0.0000
vt 0.4286 0.5302 0.0000
vt 0.4286 0.5670 0.0000
vt 0.4286 0.4568 0.0000
vt 0.2909 0.4568 0.0000
vt 0.2450 0.4568 0.0000
vt 0.1991 0.4568 0.0000
vt 0.1532 0.4568 0.0000
vt 0.1073 0.4568 0.0000
vt 0.0614 0.4568 0.0000
vt 0.3368 0.4531 0.0000
vt 0.3991 0.4273 0.0000
vt 0.4249 0.3650 0.0000
vt 0.3991 0.3027 0.0000
vt 0.3368 0.2769 0.0000
vt 0.2744 0.3027 0.0000
vt 0.2486 0.3650 0.0000
vt 0.2744 0.4273 0.0000
vt 0.9374 0.5278 0.0000
vt 0.9374 0.6392 0.0000
vt 0.8918 0.6392 0.0000
vt 0.8918 0.5278 0.0000
vt 0.8462 0.6392 0.0000
vt 0.8462 0.5278 0.0000
vt 0.8006 0.6392 0.0000
vt 0.8006 0.5278 0.0000
vt 0.7550 0.6392 0.0000
vt 0.7550 0.5278 0.0000
vt 0.7094 0.6392 0.0000
vt 0.7094 0.5278 0.0000
vt 0.6638 0.6392 0.0000
vt 0.6638 0.5278 0.0000
vt 0.7257 0.4275 0.0000
vt 0.6638 0.4532 0.0000
vt 0.6019 0.4275 0.0000
vt 0.5763 0.3656 0.0000
vt 0.6019 0.3037 0.0000
vt 0.6638 0.2781 0.0000
vt 0.7257 0.3037 0.0000
vt 0.7514 0.3656 0.0000
vt 0.6182 0.6392 0.0000
vt 0.6182 0.5278 0.0000
vt 0.5726 0.6392 0.0000
vt 0.5726 0.5278 0.0000
vt 0.8462 0.4532 0.0000
vt 0.9081 0.4275 0.0000
vt 0.9338 0.3656 0.0000
vt 0.9081 0.3037 0.0000
vt 0.8462 0.2781 0.0000
vt 0.7843 0.3037 0.0000
vt 0.7587 0.3656 0.0000
vt 0.7843 0.4275 0.0000
vt 0.6182 0.4568 0.0000
vt 0.5726 0.4568 0.0000
vt 0.6638 0.4568 0.0000
vt 0.7094 0.4568 0.0000
vt 0.7550 0.4568 0.0000
vt 0.8006 0.4568 0.0000
vt 0.8462 0.4568 0.0000
vt 0.8918 0.4568 0.0000
vt 0.9374 0.4568 0.0000
# 113 texture coords

o Lowpoly_Pine_02
g Lowpoly_Pine_02
f 1/1/1 2/2/1 2/3/1 3/4/1 
f 3/4/2 2/3/2 2/5/2 4/6/2 
f 4/6/3 2/5/3 2/7/3 5/8/3 
f 5/8/4 2/7/4 2/9/4 6/10/4 
f 6/10/5 2/9/5 2/11/5 7/12/5 
f 7/12/6 2/11/6 2/13/6 8/14/6 
f 2/15/7 2/16/7 2/17/7 2/18/7 2/19/7 2/20/7 2/21/7 2/22/7 
f 8/14/8 2/13/8 2/23/8 9/24/8 
f 9/24/9 2/23/9 2/25/9 1/26/9 
f 10/27/10 11/28/10 12/28/10 13/27/10 
f 14/29/11 15/29/11 16/30/11 17/30/11 
f 18/31/12 19/31/12 20/32/12 21/32/12 
f 22/33/13 23/33/13 24/34/13 25/34/13 
f 26/24/14 9/24/14 1/26/14 27/26/14 
f 28/35/15 29/35/15 15/29/15 14/29/15 
f 30/36/16 31/36/16 19/31/16 18/31/16 
f 32/37/17 33/37/17 23/33/17 22/33/17 
f 34/14/18 8/14/18 9/24/18 26/24/18 
f 35/38/19 36/38/19 29/35/19 28/35/19 
f 37/39/20 38/39/20 31/36/20 30/36/20 
f 39/40/21 40/40/21 33/37/21 32/37/21 
f 41/12/22 7/12/22 8/14/22 34/14/22 
f 42/41/23 43/41/23 36/38/23 35/38/23 
f 44/42/24 45/42/24 38/39/24 37/39/24 
f 46/43/25 47/43/25 40/40/25 39/40/25 
f 48/10/26 6/10/26 7/12/26 41/12/26 
f 49/44/27 50/44/27 43/41/27 42/41/27 
f 51/45/28 52/45/28 45/42/28 44/42/28 
f 53/46/29 54/46/29 47/43/29 46/43/29 
f 55/8/30 5/8/30 6/10/30 48/10/30 
f 56/47/31 57/47/31 50/44/31 49/44/31 
f 58/48/32 59/48/32 52/45/32 51/45/32 
f 60/49/33 61/49/33 54/46/33 53/46/33 
f 62/6/34 4/6/34 5/8/34 55/8/34 
f 63/50/35 64/50/35 57/47/35 56/47/35 
f 65/51/36 66/51/36 59/48/36 58/48/36 
f 67/52/37 68/52/37 61/49/37 60/49/37 
f 69/4/38 3/4/38 4/6/38 62/6/38 
f 17/53/39 16/53/39 64/50/39 63/50/39 
f 21/54/40 20/54/40 66/51/40 65/51/40 
f 25/55/41 24/55/41 68/52/41 67/52/41 
f 27/1/42 1/1/42 3/4/42 69/4/42 
f 70/56/43 17/53/43 63/50/43 10/27/43 
f 10/27/44 63/50/44 56/47/44 11/28/44 
f 11/28/45 56/47/45 49/44/45 71/57/45 
f 71/57/46 49/44/46 42/41/46 72/58/46 
f 72/58/47 42/41/47 35/38/47 73/59/47 
f 73/59/48 35/38/48 28/35/48 74/60/48 
f 74/60/49 28/35/49 14/29/49 75/61/49 
f 75/61/50 14/29/50 17/30/50 70/62/50 
f 16/53/51 21/54/51 65/51/51 64/50/51 
f 64/50/52 65/51/52 58/48/52 57/47/52 
f 57/47/53 58/48/53 51/45/53 50/44/53 
f 50/44/54 51/45/54 44/42/54 43/41/54 
f 43/41/55 44/42/55 37/39/55 36/38/55 
f 36/38/56 37/39/56 30/36/56 29/35/56 
f 29/35/57 30/36/57 18/31/57 15/29/57 
f 15/29/58 18/31/58 21/32/58 16/30/58 
f 20/54/59 25/55/59 67/52/59 66/51/59 
f 66/51/60 67/52/60 60/49/60 59/48/60 
f 59/48/61 60/49/61 53/46/61 52/45/61 
f 52/45/62 53/46/62 46/43/62 45/42/62 
f 45/42/63 46/43/63 39/40/63 38/39/63 
f 38/39/64 39/40/64 32/37/64 31/36/64 
f 31/36/65 32/37/65 22/33/65 19/31/65 
f 19/31/66 22/33/66 25/34/66 20/32/66 
f 24/55/67 27/1/67 69/4/67 68/52/67 
f 68/52/68 69/4/68 62/6/68 61/49/68 
f 61/49/69 62/6/69 55/8/69 54/46/69 
f 54/46/70 55/8/70 48/10/70 47/43/70 
f 47/43/71 48/10/71 41/12/71 40/40/71 
f 40/40/72 41/12/72 34/14/72 33/37/72 
f 33/37/73 34/14/73 26/24/73 23/33/73 
f 23/33/74 26/24/74 27/26/74 24/34/74 
f 76/63/75 13/64/75 12/65/75 77/66/75 78/67/75 79/68/75 80/69/75 81/70/75 
f 72/58/76 73/59/76 79/59/76 78/58/76 
f 75/61/77 70/62/77 76/62/77 81/61/77 
f 70/56/78 10/27/78 13/27/78 76/56/78 
f 11/28/79 71/57/79 77/57/79 12/28/79 
f 73/59/80 74/60/80 80/60/80 79/59/80 
f 71/57/81 72/58/81 78/58/81 77/57/81 
f 74/60/82 75/61/82 81/61/82 80/60/82 
f 82/71/83 83/72/83 84/73/83 85/74/83 
f 85/74/84 84/73/84 86/75/84 87/76/84 
f 87/76/85 86/75/85 88/77/85 89/78/85 
f 89/78/86 88/77/86 90/79/86 91/80/86 
f 91/80/87 90/79/87 92/81/87 93/82/87 
f 93/82/88 92/81/88 94/83/88 95/84/88 
f 84/85/7 83/86/7 96/87/7 94/88/7 92/89/7 90/90/7 88/91/7 86/92/7 
f 95/84/89 94/83/89 96/93/89 97/94/89 
f 97/94/90 96/93/90 83/95/90 82/96/90 
f 98/97/91 99/98/91 100/99/91 101/100/91 102/101/91 103/102/91 104/103/91 105/104/91 
f 105/105/92 97/94/92 82/96/92 98/106/92 
f 104/107/93 95/84/93 97/94/93 105/105/93 
f 103/108/94 93/82/94 95/84/94 104/107/94 
f 102/109/95 91/80/95 93/82/95 103/108/95 
f 101/110/96 89/78/96 91/80/96 102/109/96 
f 100/111/97 87/76/97 89/78/97 101/110/97 
f 99/112/98 85/74/98 87/76/98 100/111/98 
f 98/113/99 82/71/99 85/74/99 99/112/99 
# 100 polygons

