# 3ds Max Wavefront OBJ Exporter v0.99 - (c)2007 guruware
# File Created: 29.11.2024 18:55:05

#
# object Rock_medium_01
#

v  7.3750 15.1929 -1.0854
v  9.3300 11.3953 2.3433
v  8.0813 12.3194 -3.6156
v  7.4215 14.0094 -2.9781
v  10.8113 7.3412 4.6619
v  10.4655 5.6078 7.4345
v  14.6812 -0.0029 6.5001
v  11.6485 0.0010 9.2141
v  8.0548 7.9390 -7.3058
v  6.5474 7.6729 -8.4065
v  7.5730 8.9557 -7.7628
v  11.2889 4.4911 -5.5621
v  6.2841 2.1466 -8.9026
v  2.9340 7.7568 -9.1467
v  6.4991 2.6700 -8.3049
v  3.3712 0.0030 -11.2601
v  -0.0303 14.2407 -8.6917
v  1.4129 22.6920 -1.5707
v  1.0926 21.1851 -5.0713
v  0.1787 24.2430 -1.6459
v  0.7987 23.0000 3.9819
v  3.4946 21.5717 7.3970
v  6.1682 19.6370 1.2597
v  10.1189 0.0028 8.8839
v  9.5566 6.4870 7.3838
v  8.5166 -0.0003 10.0502
v  13.9162 4.8579 0.9559
v  13.3304 5.3574 2.7452
v  14.2627 4.0510 -1.0230
v  15.3242 0.0025 -2.3567
v  13.7928 3.2645 -3.1170
v  7.9044 1.8128 -7.7753
v  13.4619 0.0021 -4.4433
v  8.8194 0.0029 -7.3129
v  2.2735 -0.0042 -13.1173
v  -0.1003 10.4738 -10.8617
v  -6.7198 17.4557 -6.6932
v  -11.1056 16.4896 -3.0815
v  -6.7710 17.7280 -6.0622
v  -11.3682 16.0041 -2.1683
v  -11.2815 16.7244 -1.0902
v  -14.9888 0.0002 -1.2273
v  -15.0219 5.7326 6.5219
v  -15.7210 4.2531 -0.3442
v  -14.4955 7.4804 7.3347
v  -12.7588 13.2220 4.5502
v  -10.7260 20.6549 6.1439
v  -9.1898 23.6202 4.5341
v  -10.2001 22.8253 4.2996
v  -9.4596 22.9526 5.2293
v  -14.5222 4.3728 8.5249
v  -8.3604 15.2695 10.4423
v  -14.2558 6.9740 8.1153
v  2.8189 21.6368 7.7807
v  0.0997 16.4815 10.4590
v  2.9156 20.7697 8.6966
v  -4.6832 22.5521 5.0026
v  -2.7492 13.2234 11.5044
v  0.2926 22.4794 4.6023
v  -3.8672 24.1184 3.7532
v  -0.9209 25.4560 2.2327
v  -2.8909 25.0574 2.6159
v  -0.8894 25.6080 0.4287
v  -2.9812 25.5305 -2.0321
v  -2.6276 25.2125 1.7775
v  -3.7662 24.4027 2.8139
v  -3.7215 24.9834 1.8679
v  -4.3879 24.6514 2.9665
v  -4.4719 23.7280 3.9549
v  -5.0680 23.7920 4.1169
v  8.2536 11.7264 7.0709
v  5.6516 20.2883 -2.3830
v  6.0681 10.5837 -7.6979
v  5.2999 18.9767 -4.9963
v  0.2205 21.4897 -5.4707
v  6.5386 -0.0008 -9.4100
v  3.6168 20.4292 8.5105
v  15.7210 0.0003 2.2586
v  -0.4185 24.0015 -3.6548
v  -0.4085 14.2571 -9.0715
v  -10.0253 11.2264 -11.3699
v  -8.5062 -0.0001 -14.1502
v  -13.9777 6.8752 -6.9051
v  -11.9700 11.0948 -9.1224
v  -9.5893 21.9790 -2.9194
v  -8.2145 21.1312 -4.2473
v  -12.9102 0.0009 -1.6961
v  -13.9078 6.7234 -1.7400
v  -13.4056 0.0018 -8.3058
v  -12.6954 13.9166 -1.3710
v  -13.4877 -0.0023 10.8879
v  -10.8623 -0.0024 12.7432
v  -10.0133 20.6377 7.0464
v  -7.7691 15.9202 10.2646
v  -7.3726 24.6082 -1.9305
v  -0.6295 -0.0040 14.1502
v  -2.8640 12.3706 11.8113
v  1.2919 -0.0005 13.6329
v  0.9188 15.4804 10.9881
# 99 vertices

vn 0.9456 0.3181 -0.0684
vn 0.7791 0.5559 0.2898
vn 0.8538 0.3892 -0.3458
vn 0.8776 0.3650 -0.3107
vn 0.7940 0.5546 0.2490
vn 0.3947 0.4651 0.7924
vn 0.7840 0.4190 0.4580
vn 0.3312 0.3302 0.8839
vn 0.7686 0.2427 -0.5919
vn 0.3501 0.1010 -0.9313
vn 0.6426 0.2678 -0.7179
vn 0.6826 0.3321 -0.6510
vn 0.5812 0.3140 -0.7507
vn 0.3649 0.2360 -0.9006
vn 0.4959 0.2632 -0.8275
vn 0.6670 0.2816 -0.6898
vn 0.5034 0.4679 -0.7264
vn 0.6487 0.7448 -0.1564
vn 0.5357 0.5585 -0.6332
vn 0.6539 0.7298 -0.1994
vn 0.3754 0.8641 0.3352
vn 0.5439 0.7681 0.3379
vn 0.8209 0.5694 0.0432
vn 0.2650 0.2569 0.9294
vn 0.5316 0.4216 0.7346
vn 0.5286 0.1999 0.8250
vn 0.8125 0.5820 -0.0330
vn 0.7684 0.6112 0.1897
vn 0.8518 0.4700 -0.2314
vn 0.8959 0.2814 -0.3439
vn 0.7772 0.3977 -0.4876
vn 0.5415 0.1209 -0.8320
vn 0.6690 0.1405 -0.7299
vn 0.5653 0.0992 -0.8189
vn 0.5222 0.2970 -0.7994
vn 0.4460 0.3697 -0.8151
vn -0.1094 0.8207 -0.5607
vn -0.8657 0.3717 -0.3354
vn -0.2955 0.6271 -0.7207
vn -0.9352 0.3351 -0.1146
vn -0.9430 0.3259 -0.0670
vn -0.8275 -0.0989 -0.5527
vn -0.9855 0.0798 0.1498
vn -0.9201 0.0239 -0.3910
vn -0.9098 0.2608 0.3227
vn -0.9563 0.2917 -0.0191
vn -0.8472 0.3959 0.3543
vn -0.3737 0.8644 0.3364
vn -0.8320 0.5454 0.1017
vn -0.3185 0.6861 0.6541
vn -0.8813 0.0449 0.4705
vn -0.4294 0.2786 0.8591
vn -0.7559 0.1959 0.6246
vn -0.0980 0.7973 0.5956
vn -0.2464 0.5120 0.8229
vn -0.0505 0.6096 0.7911
vn 0.0911 0.6036 0.7921
vn -0.0834 0.4334 0.8974
vn -0.0702 0.7757 0.6271
vn -0.2277 0.7939 0.5637
vn 0.3336 0.8772 0.3452
vn -0.2197 0.8910 0.3972
vn 0.3878 0.9217 -0.0043
vn -0.0437 0.9072 -0.4184
vn -0.2078 0.9687 0.1358
vn -0.1104 0.8998 0.4221
vn -0.1932 0.9610 0.1978
vn 0.1134 0.8889 0.4438
vn 0.0567 0.7179 0.6938
vn 0.1505 0.6828 0.7149
vn 0.8700 0.2728 0.4108
vn 0.7237 0.6505 -0.2307
vn 0.4282 0.3838 -0.8182
vn 0.5878 0.4645 -0.6624
vn 0.2930 0.5412 -0.7882
vn 0.5615 0.2273 -0.7957
vn 0.5863 0.4580 0.6681
vn 0.9300 0.3529 0.1025
vn 0.3071 0.7263 -0.6150
vn 0.4018 0.6457 -0.6493
vn -0.4036 0.3944 -0.8255
vn -0.3263 0.1798 -0.9280
vn -0.9580 0.0952 -0.2704
vn -0.8180 0.3561 -0.4518
vn -0.6944 0.4907 -0.5263
vn -0.3616 0.4118 -0.8365
vn -0.8687 -0.0740 -0.4897
vn -0.8890 0.1143 -0.4434
vn -0.9300 -0.0154 -0.3672
vn -0.8913 0.3057 -0.3349
vn -0.8013 0.0983 0.5901
vn -0.4023 0.2044 0.8924
vn -0.3298 0.5197 0.7881
vn -0.1672 0.4492 0.8777
vn -0.3715 0.8359 -0.4041
vn 0.0068 0.1784 0.9839
vn -0.0316 0.2306 0.9725
vn 0.2895 0.1801 0.9401
vn 0.2054 0.2680 0.9413
# 99 vertex normals

vt 0.1061 0.9359 0.0000
vt 0.1035 0.9259 0.0000
vt 0.1128 0.9325 0.0000
vt 0.1106 0.9353 0.0000
vt 0.1023 0.9167 0.0000
vt 0.0979 0.9124 0.0000
vt 0.1038 0.9013 0.0000
vt 0.0961 0.9024 0.0000
vt 0.1228 0.9279 0.0000
vt 0.1258 0.9298 0.0000
vt 0.1226 0.9301 0.0000
vt 0.1225 0.9183 0.0000
vt 0.1338 0.9227 0.0000
vt 0.1307 0.9347 0.0000
vt 0.1322 0.9229 0.0000
vt 0.0493 0.9912 0.0000
vt 0.0441 0.9817 0.0000
vt 0.0587 0.9971 0.0000
vt 0.1036 0.9751 0.0000
vt 0.0990 0.9742 0.0000
vt 0.1039 0.9730 0.0000
vt 0.1101 0.9752 0.0000
vt 0.1138 0.9784 0.0000
vt 0.1069 0.9829 0.0000
vt 0.0935 0.9038 0.0000
vt 0.0969 0.9145 0.0000
vt 0.0898 0.9044 0.0000
vt 0.1112 0.9119 0.0000
vt 0.1078 0.9122 0.0000
vt 0.1149 0.9116 0.0000
vt 0.1201 0.9060 0.0000
vt 0.1190 0.9123 0.0000
vt 0.1313 0.9198 0.0000
vt 0.1243 0.9094 0.0000
vt 0.1317 0.9165 0.0000
vt 0.0463 0.9795 0.0000
vt 0.0558 0.9910 0.0000
vt 0.0706 0.9965 0.0000
vt 0.0791 0.9936 0.0000
vt 0.0713 0.9972 0.0000
vt 0.1101 0.9507 0.0000
vt 0.1105 0.9530 0.0000
vt 0.1066 0.9520 0.0000
vt 0.1287 0.9378 0.0000
vt 0.1281 0.9505 0.0000
vt 0.1244 0.9421 0.0000
vt 0.1269 0.9523 0.0000
vt 0.1192 0.9543 0.0000
vt 0.1157 0.9630 0.0000
vt 0.1129 0.9641 0.0000
vt 0.1128 0.9630 0.0000
vt 0.1136 0.9638 0.0000
vt 0.1313 0.9526 0.0000
vt 0.1234 0.9659 0.0000
vt 0.1283 0.9534 0.0000
vt 0.1141 0.9779 0.0000
vt 0.1211 0.9765 0.0000
vt 0.1154 0.9779 0.0000
vt 0.1130 0.9691 0.0000
vt 0.1252 0.9736 0.0000
vt 0.1116 0.9745 0.0000
vt 0.1100 0.9680 0.0000
vt 0.1080 0.9724 0.0000
vt 0.1085 0.9692 0.0000
vt 0.1064 0.9719 0.0000
vt 0.1046 0.9691 0.0000
vt 0.1076 0.9692 0.0000
vt 0.1090 0.9682 0.0000
vt 0.1078 0.9682 0.0000
vt 0.1090 0.9676 0.0000
vt 0.1104 0.9675 0.0000
vt 0.1105 0.9670 0.0000
vt 0.1045 0.9889 0.0000
vt 0.1172 0.9904 0.0000
vt 0.1209 0.9963 0.0000
vt 0.1020 0.9809 0.0000
vt 0.0991 0.9887 0.0000
vt 0.1220 0.9341 0.0000
vt 0.0981 0.9801 0.0000
vt 0.0893 0.9858 0.0000
vt 0.0829 0.9778 0.0000
vt 0.0905 0.9709 0.0000
vt 0.0990 0.9721 0.0000
vt 0.1363 0.9200 0.0000
vt 0.1407 0.9254 0.0000
vt 0.1153 0.9785 0.0000
vt 0.1314 0.9980 0.0000
vt 0.1120 0.9030 0.0000
vt 0.1018 0.9717 0.0000
vt 0.0594 0.9963 0.0000
vt 0.0683 0.9846 0.0000
vt 0.0594 0.9706 0.0000
vt 0.0748 0.9774 0.0000
vt 0.0718 0.9840 0.0000
vt 0.1053 0.9601 0.0000
vt 0.1030 0.9612 0.0000
vt 0.0988 0.9595 0.0000
vt 0.0812 0.9672 0.0000
vt 0.0823 0.9771 0.0000
vt 0.0712 0.9684 0.0000
vt 0.1270 0.9355 0.0000
vt 0.1206 0.9417 0.0000
vt 0.1142 0.9491 0.0000
vt 0.1377 0.9533 0.0000
vt 0.1400 0.9603 0.0000
vt 0.1159 0.9640 0.0000
vt 0.1227 0.9667 0.0000
vt 0.1058 0.9640 0.0000
vt 0.1407 0.9787 0.0000
vt 0.1266 0.9736 0.0000
vt 0.1386 0.9850 0.0000
vt 0.1223 0.9778 0.0000
vt 0.0812 0.9921 0.0000
# 113 texture coords

o Rock_medium_01
g Rock_medium_01
s off
f 1/1/1 2/2/2 3/3/3 
f 4/4/4 1/1/1 3/3/3 
f 5/5/5 2/2/2 6/6/6 
f 7/7/7 6/6/6 8/8/8 
f 9/9/9 10/10/10 11/11/11 
f 9/9/9 12/12/12 10/10/10 
f 13/13/13 14/14/14 15/15/15 
f 14/16/14 16/17/16 17/18/17 
f 18/19/18 19/20/19 20/21/20 
f 20/21/20 21/22/21 18/19/18 
f 22/23/22 23/24/23 21/22/21 
f 24/25/24 25/26/25 26/27/26 
f 27/28/27 5/5/5 28/29/28 
f 29/30/29 30/31/30 31/32/31 
f 31/32/31 12/12/12 29/30/29 
f 32/33/32 33/34/33 34/35/34 
f 15/15/15 32/33/32 13/13/13 
f 35/36/35 36/37/36 16/17/16 
f 37/38/37 38/39/38 39/40/39 
f 40/41/40 41/42/41 38/43/38 
f 42/44/42 43/45/43 44/46/44 
f 45/47/45 46/48/46 43/45/43 
f 45/47/45 47/49/47 46/48/46 
f 48/50/48 49/51/49 50/52/50 
f 51/53/51 52/54/52 53/55/53 
f 54/56/54 55/57/55 56/58/56 
f 57/59/57 58/60/58 59/61/59 
f 60/62/60 61/63/61 62/64/62 
f 63/65/63 64/66/64 65/67/65 
f 21/22/21 57/59/57 59/61/59 
f 66/68/66 67/69/67 68/70/68 
f 69/71/69 57/59/57 60/62/60 
f 70/72/70 57/59/57 69/71/69 
f 27/28/27 9/9/9 5/5/5 
f 25/26/25 6/6/6 2/2/2 1/1/1 
f 1/73/1 23/24/23 71/74/71 25/75/25 
f 72/76/72 23/24/23 1/73/1 4/77/4 
f 24/25/24 8/8/8 6/6/6 25/26/25 
f 28/29/28 5/5/5 6/6/6 7/7/7 
f 3/3/3 11/11/11 73/78/73 4/4/4 
f 73/78/73 11/11/11 10/10/10 14/14/14 
f 74/79/74 72/76/72 4/77/4 73/80/73 
f 15/15/15 14/14/14 10/10/10 32/33/32 
f 12/12/12 33/34/33 32/33/32 10/10/10 
f 19/20/19 74/79/74 73/80/73 14/81/14 
f 17/82/17 75/83/75 19/20/19 14/81/14 
f 13/13/13 76/84/76 16/85/16 14/14/14 
f 72/76/72 74/79/74 19/20/19 18/19/18 
f 23/24/23 22/23/22 77/86/77 71/74/71 
f 59/61/59 54/56/54 22/23/22 21/22/21 
f 54/56/54 56/58/56 77/86/77 22/23/22 
f 26/87/26 25/75/25 71/74/71 77/86/77 
f 78/88/78 27/28/27 28/29/28 7/7/7 
f 31/32/31 30/31/30 33/34/33 12/12/12 
f 78/88/78 30/31/30 29/30/29 27/28/27 
f 76/84/76 13/13/13 32/33/32 34/35/34 
f 19/20/19 75/83/75 79/89/79 20/21/20 
f 36/37/36 80/90/80 17/18/17 16/17/16 
f 17/18/17 80/90/80 37/38/37 39/40/39 
f 81/91/81 37/38/37 80/90/80 36/37/36 
f 82/92/82 81/91/81 36/37/36 35/36/35 
f 83/93/83 84/94/84 81/91/81 82/92/82 
f 37/38/37 81/91/81 84/94/84 38/39/38 
f 38/43/38 85/95/85 86/96/86 39/97/39 
f 87/98/87 88/99/88 83/93/83 89/100/89 
f 87/101/87 42/44/42 44/46/44 88/102/88 
f 88/102/88 44/46/44 90/103/90 40/41/40 
f 41/42/41 40/41/40 90/103/90 46/48/46 
f 47/49/47 49/51/49 41/42/41 46/48/46 
f 85/95/85 38/43/38 41/42/41 49/51/49 
f 53/55/53 45/47/45 43/45/43 51/53/51 
f 91/104/91 51/53/51 43/45/43 42/44/42 
f 45/47/45 53/55/53 52/54/52 47/49/47 
f 51/53/51 91/104/91 92/105/92 52/54/52 
f 50/52/50 49/51/49 47/49/47 93/106/93 
f 52/54/52 94/107/94 93/106/93 47/49/47 
f 49/51/49 48/50/48 95/108/95 85/95/85 
f 68/70/68 67/69/67 95/108/95 48/50/48 
f 48/50/48 50/52/50 70/72/70 68/70/68 
f 92/105/92 96/109/96 97/110/97 52/54/52 
f 58/60/58 94/107/94 52/54/52 97/110/97 
f 97/110/97 96/109/96 98/111/98 99/112/99 
f 99/112/99 55/57/55 58/60/58 97/110/97 
f 77/86/77 56/58/56 55/57/55 99/112/99 
f 57/59/57 93/106/93 94/107/94 58/60/58 
f 20/21/20 63/65/63 61/63/61 21/22/21 
f 21/22/21 61/63/61 60/62/60 57/59/57 
f 65/67/65 62/64/62 61/63/61 63/65/63 
f 20/21/20 79/89/79 64/66/64 63/65/63 
f 67/69/67 65/67/65 64/66/64 95/108/95 
f 62/64/62 65/67/65 67/69/67 66/68/66 
f 66/68/66 69/71/69 60/62/60 62/64/62 
f 23/24/23 72/76/72 18/19/18 21/22/21 
f 27/28/27 29/30/29 12/12/12 9/9/9 
f 44/46/44 43/45/43 46/48/46 90/103/90 
f 55/57/55 54/56/54 59/61/59 58/60/58 
f 69/71/69 66/68/66 68/70/68 70/72/70 
f 57/59/57 70/72/70 50/52/50 93/106/93 
f 5/5/5 9/9/9 3/3/3 2/2/2 
f 11/11/11 3/3/3 9/9/9 
f 88/99/88 40/113/40 84/94/84 83/93/83 
f 38/39/38 84/94/84 40/113/40 
f 83/93/83 82/92/82 89/100/89 
f 99/112/99 98/111/98 26/87/26 77/86/77 
f 39/97/39 86/96/86 75/83/75 17/82/17 
f 86/96/86 85/95/85 79/89/79 75/83/75 
f 95/108/95 64/66/64 79/89/79 85/95/85 
# 70 polygons - 37 triangles

