# 3ds Max Wavefront OBJ Exporter v0.99 - (c)2007 guruware
# File Created: 17.11.2024 20:38:10

#
# object small_stone01
#

v  7.4394 5.2572 8.2743
v  -3.6593 -5.5959 2.2734
v  -0.1037 -5.5959 2.7844
v  9.9001 1.7282 -4.2537
v  5.5201 -5.5959 -0.0000
v  2.0459 -5.5959 -5.4013
v  -6.1884 4.4869 -0.0000
v  -3.4023 5.7521 6.7963
v  2.0459 -5.5959 2.2734
v  -2.7541 -5.5959 -2.2734
v  -0.3109 7.0941 -8.6101
v  -0.1037 -5.5959 -5.9122
v  6.0220 8.1987 2.6591
v  -5.4109 7.7016 -3.0255
# 14 vertices

vn 0.2750 0.5915 0.7579
vn -0.8030 0.3411 0.4887
vn 0.0318 -0.0806 0.9962
vn 0.8393 0.2889 -0.4604
vn 0.7664 0.6287 0.1317
vn 0.6039 -0.2869 -0.7436
vn -0.8148 0.5587 -0.1545
vn -0.4907 0.6786 0.5466
vn 0.6778 0.5916 0.4364
vn -0.7520 0.2557 -0.6075
vn 0.0990 0.2224 -0.9699
vn 0.0203 -0.4594 -0.8880
vn -0.0146 0.9905 -0.1367
vn -0.3887 0.6522 -0.6507
# 14 vertex normals

vt 0.3186 0.0795 0.0000
vt 0.3150 0.0806 0.0000
vt 0.3191 0.0808 0.0000
vt 0.3193 0.0840 0.0000
vt 0.3208 0.0827 0.0000
vt 0.3193 0.0846 0.0000
vt 0.3156 0.0833 0.0000
vt 0.3166 0.0819 0.0000
vt 0.3209 0.0826 0.0000
vt 0.3143 0.0828 0.0000
vt 0.3169 0.0840 0.0000
vt 0.3167 0.0847 0.0000
vt 0.3169 0.0815 0.0000
vt 0.3160 0.0826 0.0000
# 14 texture coords

o small_stone01
g small_stone01
s 1
f 1/1/1 2/2/2 3/3/3 
f 4/4/4 5/5/5 6/6/6 
f 7/7/7 2/2/2 8/8/8 
f 1/1/1 3/3/3 9/9/9 
f 7/7/7 10/10/10 2/2/2 
f 11/11/11 6/6/6 12/12/12 
f 7/7/7 8/8/8 13/13/13 
f 11/11/11 10/10/10 14/14/14 
f 13/13/13 1/1/1 4/4/4 
f 4/4/4 11/11/11 13/13/13 
f 1/1/1 5/5/5 4/4/4 
f 1/1/1 8/8/8 2/2/2 
f 7/7/7 14/14/14 10/10/10 
f 1/1/1 13/13/13 8/8/8 
f 14/14/14 7/7/7 13/13/13 
f 11/11/11 12/12/12 10/10/10 
f 14/14/14 13/13/13 11/11/11 
f 4/4/4 6/6/6 11/11/11 
f 1/1/1 9/9/9 5/5/5 
# 0 polygons - 19 triangles

#
# object small_stone02
#

v  4.2914 7.0582 10.3254
v  -1.4565 -4.3283 1.3420
v  -0.0000 -4.3283 1.6437
v  5.9029 3.5582 -6.8950
v  1.7839 -4.3283 -0.0000
v  1.4565 -4.3283 -1.3420
v  -12.4723 4.4500 -0.0000
v  -11.3355 7.5490 8.2814
v  1.4565 -4.3283 1.3420
v  -1.4565 -4.3283 -1.3420
v  -1.7839 -4.3283 -0.0000
v  0.0000 2.2821 -10.2736
v  -0.0000 -4.3283 -1.6437
v  -4.5542 12.4654 6.9444
v  -3.5731 14.1515 -1.4908
v  -8.5743 5.0208 -8.5859
# 16 vertices

vn 0.2944 0.4657 0.8345
vn -0.6288 -0.2735 0.7278
vn -0.0132 -0.2965 0.9549
vn 0.7757 0.4129 -0.4772
vn 0.8580 0.4819 0.1777
vn 0.6407 -0.2181 -0.7362
vn -0.9831 0.1776 -0.0442
vn -0.6715 0.4353 0.5996
vn 0.7327 0.4931 0.4691
vn -0.6407 -0.3375 -0.6896
vn -0.8537 -0.5207 0.0000
vn 0.0609 0.1338 -0.9891
vn 0.0000 -0.4900 -0.8717
vn -0.0680 0.9643 0.2560
vn -0.0188 0.9732 -0.2292
vn -0.5346 0.3836 -0.7530
# 16 vertex normals

vt 0.3167 0.0820 0.0000
vt 0.3141 0.0826 0.0000
vt 0.3162 0.0807 0.0000
vt 0.3203 0.0820 0.0000
vt 0.3213 0.0824 0.0000
vt 0.3210 0.0826 0.0000
vt 0.3144 0.0824 0.0000
vt 0.3154 0.0833 0.0000
vt 0.3190 0.0807 0.0000
vt 0.3156 0.0846 0.0000
vt 0.3136 0.0827 0.0000
vt 0.3183 0.0840 0.0000
vt 0.3185 0.0847 0.0000
vt 0.3162 0.0833 0.0000
vt 0.3167 0.0819 0.0000
vt 0.3160 0.0837 0.0000
# 16 texture coords

o small_stone02
g small_stone02
s 1
f 15/15/15 16/16/16 17/17/17 
f 18/18/18 19/19/19 20/20/20 
f 21/21/21 16/16/16 22/22/22 
f 15/15/15 17/17/17 23/23/23 
f 21/21/21 24/24/24 25/25/25 
f 26/26/26 20/20/20 27/27/27 
f 15/15/15 28/28/28 22/22/22 
f 21/21/21 22/22/22 29/29/29 
f 26/26/26 24/24/24 30/30/30 
f 29/29/29 15/15/15 18/18/18 
f 18/18/18 26/26/26 29/29/29 
f 15/15/15 19/19/19 18/18/18 
f 15/15/15 22/22/22 16/16/16 
f 21/21/21 25/25/25 16/16/16 
f 21/21/21 30/30/30 24/24/24 
f 28/28/28 29/29/29 22/22/22 
f 30/30/30 21/21/21 29/29/29 
f 26/26/26 27/27/27 24/24/24 
f 29/29/29 28/28/28 15/15/15 
f 30/30/30 29/29/29 26/26/26 
f 18/18/18 20/20/20 26/26/26 
f 15/15/15 23/23/23 19/19/19 
# 0 polygons - 22 triangles

